# Blender v2.79 (sub 0) OBJ File: 'Pyramid Parts.blend'
# www.blender.org
mtllib Altar.mtl
o Altar_Cylinder.009
v -10.388660 -1.000000 10.000000
v -10.388660 -1.000000 7.660000
v -10.388660 0.680000 8.127999
v -9.932149 -1.000000 7.704962
v -10.023451 0.680000 8.163970
v -9.493181 -1.000000 7.838122
v -9.672276 0.680000 8.270497
v -9.088626 -1.000000 8.054361
v -9.348633 0.680000 8.443489
v -8.734031 -1.000000 8.345370
v -9.064957 0.680000 8.676296
v -8.443022 -1.000000 8.699965
v -8.832150 0.680000 8.959972
v -8.226782 -1.000000 9.104521
v -8.659158 0.680000 9.283616
v -8.093622 -1.000000 9.543489
v -8.552630 0.680000 9.634790
v -8.048660 -1.000000 10.000000
v -8.516661 0.680000 10.000000
v -8.093622 -1.000000 10.456511
v -8.552630 0.680000 10.365209
v -8.226782 -1.000000 10.895479
v -8.659158 0.680000 10.716383
v -8.443022 -1.000000 11.300035
v -8.832150 0.680000 11.040028
v -8.734031 -1.000000 11.654630
v -9.064957 0.680000 11.323704
v -9.088626 -1.000000 11.945639
v -9.348633 0.680000 11.556511
v -9.493181 -1.000000 12.161879
v -9.672277 0.680000 11.729503
v -9.932150 -1.000000 12.295038
v -10.023452 0.680000 11.836030
v -10.388661 -1.000000 12.340000
v -10.388661 0.680000 11.872000
v -10.845173 -1.000000 12.295037
v -10.753870 0.680000 11.836030
v -11.284141 -1.000000 12.161878
v -11.105044 0.680000 11.729502
v -11.688696 -1.000000 11.945639
v -11.428689 0.680000 11.556511
v -12.043291 -1.000000 11.654629
v -11.712365 0.680000 11.323703
v -12.334300 -1.000000 11.300034
v -11.945172 0.680000 11.040027
v -12.550539 -1.000000 10.895477
v -12.118164 0.680000 10.716382
v -12.683699 -1.000000 10.456510
v -12.224690 0.680000 10.365208
v -12.728661 -1.000000 9.999998
v -12.260660 0.680000 9.999998
v -12.683698 -1.000000 9.543487
v -12.224690 0.680000 9.634789
v -12.550537 -1.000000 9.104518
v -12.118162 0.680000 9.283614
v -12.334298 -1.000000 8.699964
v -11.945170 0.680000 8.959970
v -12.043288 -1.000000 8.345367
v -11.712362 0.680000 8.676294
v -11.688692 -1.000000 8.054359
v -11.428686 0.680000 8.443487
v -11.284137 -1.000000 7.838120
v -11.105042 0.680000 8.270496
v -10.845168 -1.000000 7.704962
v -10.753866 0.680000 8.163969
v -10.077374 0.680000 8.435059
v -10.388660 0.680000 8.404399
v -9.778050 0.680000 8.525857
v -9.502192 0.680000 8.673306
v -9.260401 0.680000 8.871739
v -9.061967 0.680000 9.113532
v -8.914517 0.680000 9.389390
v -8.823719 0.680000 9.688714
v -8.793059 0.680000 10.000000
v -8.823719 0.680000 10.311286
v -8.914517 0.680000 10.610609
v -9.061967 0.680000 10.886468
v -9.260401 0.680000 11.128260
v -9.502192 0.680000 11.326694
v -9.778050 0.680000 11.474143
v -10.077374 0.680000 11.564941
v -10.388660 0.680000 11.595600
v -10.699947 0.680000 11.564941
v -10.999271 0.680000 11.474142
v -11.275129 0.680000 11.326693
v -11.516921 0.680000 11.128260
v -11.715355 0.680000 10.886467
v -11.862803 0.680000 10.610609
v -11.953602 0.680000 10.311285
v -11.984262 0.680000 9.999998
v -11.953602 0.680000 9.688712
v -11.862803 0.680000 9.389388
v -11.715353 0.680000 9.113530
v -11.516919 0.680000 8.871738
v -11.275126 0.680000 8.673306
v -10.999269 0.680000 8.525856
v -10.699944 0.680000 8.435058
v -10.388660 0.561234 8.538322
v -10.388660 0.561234 10.000000
v -10.103501 0.561234 8.566408
v -9.829301 0.561234 8.649586
v -9.576596 0.561234 8.784659
v -9.355099 0.561234 8.966438
v -9.173320 0.561234 9.187936
v -9.038247 0.561234 9.440640
v -8.955069 0.561234 9.714841
v -8.926983 0.561234 10.000000
v -8.955069 0.561234 10.285159
v -9.038246 0.561234 10.559360
v -9.173320 0.561234 10.812064
v -9.355099 0.561234 11.033562
v -9.576596 0.561234 11.215340
v -9.829301 0.561234 11.350414
v -10.103501 0.561234 11.433591
v -10.388660 0.561234 11.461677
v -10.673820 0.561234 11.433591
v -10.948021 0.561234 11.350413
v -11.200726 0.561234 11.215340
v -11.422223 0.561234 11.033561
v -11.604001 0.561234 10.812063
v -11.739075 0.561234 10.559359
v -11.822252 0.561234 10.285157
v -11.850338 0.561234 9.999998
v -11.822251 0.561234 9.714839
v -11.739073 0.561234 9.440639
v -11.603999 0.561234 9.187934
v -11.422221 0.561234 8.966436
v -11.200723 0.561234 8.784658
v -10.948018 0.561234 8.649586
v -10.673817 0.561234 8.566408
vt 0.750000 0.250000
vt 0.750000 0.490000
vt 0.796822 0.485388
vt 0.841844 0.471731
vt 0.883337 0.449553
vt 0.919706 0.419706
vt 0.949553 0.383337
vt 0.971731 0.341844
vt 0.985388 0.296822
vt 0.990000 0.250000
vt 0.985388 0.203178
vt 0.971731 0.158156
vt 0.949553 0.116663
vt 0.919706 0.080294
vt 0.883337 0.050447
vt 0.841844 0.028269
vt 0.796822 0.014612
vt 0.750000 0.010000
vt 0.703178 0.014612
vt 0.658156 0.028269
vt 0.616663 0.050447
vt 0.580294 0.080294
vt 0.550447 0.116663
vt 0.528269 0.158156
vt 0.514611 0.203179
vt 0.510000 0.250000
vt 0.514612 0.296822
vt 0.528269 0.341844
vt 0.550447 0.383337
vt 0.580295 0.419706
vt 0.616663 0.449553
vt 0.658156 0.471731
vt 0.703179 0.485389
vt 0.250000 0.250000
vt 0.289908 0.450634
vt 0.250000 0.454564
vt 0.328283 0.438993
vt 0.363650 0.420089
vt 0.394649 0.394649
vt 0.420089 0.363650
vt 0.438993 0.328283
vt 0.450634 0.289908
vt 0.454564 0.250000
vt 0.450634 0.210092
vt 0.438993 0.171717
vt 0.420089 0.136350
vt 0.394649 0.105351
vt 0.363650 0.079911
vt 0.328283 0.061007
vt 0.289908 0.049366
vt 0.250000 0.045436
vt 0.210091 0.049366
vt 0.171717 0.061007
vt 0.136350 0.079911
vt 0.105351 0.105351
vt 0.079911 0.136350
vt 0.061007 0.171717
vt 0.049366 0.210092
vt 0.045436 0.250000
vt 0.049367 0.289909
vt 0.061007 0.328283
vt 0.079911 0.363650
vt 0.105351 0.394649
vt 0.136350 0.420089
vt 0.171717 0.438993
vt 0.210092 0.450634
vt 0.438993 0.328283
vt 0.420089 0.363650
vt 1.000000 0.500000
vt 1.000000 1.000000
vt 0.968750 1.000000
vt 0.968750 0.500000
vt 0.136350 0.079911
vt 0.171717 0.061007
vt 0.937500 1.000000
vt 0.937500 0.500000
vt 0.250000 0.454564
vt 0.210092 0.450634
vt 0.906250 1.000000
vt 0.906250 0.500000
vt 0.394649 0.394649
vt 0.875000 1.000000
vt 0.875000 0.500000
vt 0.210091 0.049366
vt 0.843750 1.000000
vt 0.843750 0.500000
vt 0.171717 0.438993
vt 0.812500 1.000000
vt 0.812500 0.500000
vt 0.363650 0.420089
vt 0.781250 1.000000
vt 0.781250 0.500000
vt 0.250000 0.045436
vt 0.750000 1.000000
vt 0.750000 0.500000
vt 0.136350 0.420089
vt 0.718750 1.000000
vt 0.718750 0.500000
vt 0.328283 0.438993
vt 0.687500 1.000000
vt 0.687500 0.500000
vt 0.289908 0.049366
vt 0.656250 1.000000
vt 0.656250 0.500000
vt 0.105351 0.394649
vt 0.625000 1.000000
vt 0.625000 0.500000
vt 0.289908 0.450634
vt 0.593750 1.000000
vt 0.593750 0.500000
vt 0.328283 0.061007
vt 0.562500 1.000000
vt 0.562500 0.500000
vt 0.079911 0.363650
vt 0.531250 1.000000
vt 0.531250 0.500000
vt 0.500000 1.000000
vt 0.500000 0.500000
vt 0.363650 0.079911
vt 0.468750 1.000000
vt 0.468750 0.500000
vt 0.061007 0.328283
vt 0.437500 1.000000
vt 0.437500 0.500000
vt 0.394649 0.105351
vt 0.406250 1.000000
vt 0.406250 0.500000
vt 0.049367 0.289909
vt 0.375000 1.000000
vt 0.375000 0.500000
vt 0.420089 0.136350
vt 0.343750 1.000000
vt 0.343750 0.500000
vt 0.045436 0.250000
vt 0.312500 1.000000
vt 0.312500 0.500000
vt 0.438993 0.171717
vt 0.281250 1.000000
vt 0.281250 0.500000
vt 0.049366 0.210092
vt 0.250000 1.000000
vt 0.250000 0.500000
vt 0.450634 0.210092
vt 0.218750 1.000000
vt 0.218750 0.500000
vt 0.061007 0.171717
vt 0.187500 1.000000
vt 0.187500 0.500000
vt 0.454564 0.250000
vt 0.156250 1.000000
vt 0.156250 0.500000
vt 0.079911 0.136350
vt 0.125000 1.000000
vt 0.125000 0.500000
vt 0.450634 0.289908
vt 0.093750 1.000000
vt 0.093750 0.500000
vt 0.105351 0.105351
vt 0.062500 1.000000
vt 0.062500 0.500000
vt 0.031250 1.000000
vt 0.031250 0.500000
vt 0.000000 1.000000
vt 0.000000 0.500000
vt 0.296822 0.485388
vt 0.250000 0.490000
vt 0.341844 0.471731
vt 0.383337 0.449553
vt 0.419706 0.419706
vt 0.449553 0.383337
vt 0.471731 0.341844
vt 0.485388 0.296822
vt 0.490000 0.250000
vt 0.485388 0.203178
vt 0.471731 0.158156
vt 0.449553 0.116663
vt 0.419706 0.080294
vt 0.383337 0.050447
vt 0.341844 0.028269
vt 0.296822 0.014612
vt 0.250000 0.010000
vt 0.203178 0.014612
vt 0.158156 0.028269
vt 0.116663 0.050447
vt 0.080294 0.080294
vt 0.050447 0.116663
vt 0.028269 0.158156
vt 0.014611 0.203179
vt 0.010000 0.250000
vt 0.014612 0.296822
vt 0.028269 0.341844
vt 0.050447 0.383337
vt 0.080295 0.419706
vt 0.116663 0.449553
vt 0.158156 0.471731
vt 0.203179 0.485389
vn 0.0000 -1.0000 0.0000
vn 0.0000 1.0000 0.0000
vn -0.3096 0.9421 0.1282
vn -0.2787 0.9421 0.1862
vn -0.3109 0.9275 0.2077
vn -0.3454 0.9275 0.1431
vn 0.0000 -0.5820 -0.8132
vn 0.0000 0.7784 -0.6277
vn 0.1224 0.7784 -0.6156
vn 0.1586 -0.5820 -0.7976
vn 0.1862 0.9421 -0.2787
vn 0.1282 0.9421 -0.3096
vn 0.1431 0.9275 -0.3454
vn 0.2077 0.9275 -0.3109
vn 0.2402 0.7784 -0.5799
vn 0.3112 -0.5820 -0.7513
vn 0.0000 0.9421 0.3352
vn 0.0654 0.9421 0.3287
vn 0.0729 0.9275 0.3667
vn 0.0000 0.9275 0.3739
vn 0.3487 0.7784 -0.5219
vn 0.4518 -0.5820 -0.6761
vn -0.2370 0.9421 0.2370
vn -0.2644 0.9275 0.2644
vn 0.4439 0.7784 -0.4439
vn 0.5750 -0.5820 -0.5750
vn 0.0654 0.9421 -0.3287
vn 0.0729 0.9275 -0.3667
vn 0.5219 0.7784 -0.3487
vn 0.6761 -0.5820 -0.4518
vn 0.1282 0.9421 0.3096
vn 0.1431 0.9275 0.3454
vn 0.5799 0.7784 -0.2402
vn 0.7513 -0.5820 -0.3112
vn -0.1862 0.9421 0.2787
vn -0.2077 0.9275 0.3109
vn 0.6156 0.7784 -0.1224
vn 0.7976 -0.5820 -0.1586
vn 0.0000 0.9421 -0.3352
vn 0.0000 0.9275 -0.3739
vn 0.6277 0.7784 0.0000
vn 0.8132 -0.5820 0.0000
vn 0.1862 0.9421 0.2787
vn 0.2077 0.9275 0.3109
vn 0.6156 0.7784 0.1224
vn 0.7976 -0.5820 0.1586
vn -0.1282 0.9421 0.3096
vn -0.1431 0.9275 0.3454
vn 0.5799 0.7784 0.2402
vn 0.7513 -0.5820 0.3112
vn -0.0654 0.9421 -0.3287
vn -0.0729 0.9275 -0.3667
vn 0.5219 0.7784 0.3487
vn 0.6761 -0.5820 0.4518
vn 0.2370 0.9421 0.2370
vn 0.2644 0.9275 0.2644
vn 0.4439 0.7784 0.4439
vn 0.5750 -0.5820 0.5750
vn -0.0654 0.9421 0.3287
vn -0.0729 0.9275 0.3667
vn 0.3487 0.7784 0.5219
vn 0.4518 -0.5820 0.6761
vn -0.1282 0.9421 -0.3096
vn -0.1431 0.9275 -0.3454
vn 0.2402 0.7784 0.5799
vn 0.3112 -0.5820 0.7513
vn 0.2787 0.9421 0.1862
vn 0.3109 0.9275 0.2077
vn 0.1224 0.7784 0.6156
vn 0.1586 -0.5820 0.7976
vn 0.0000 0.7784 0.6277
vn 0.0000 -0.5820 0.8132
vn -0.1862 0.9421 -0.2787
vn -0.2077 0.9275 -0.3109
vn -0.1224 0.7784 0.6156
vn -0.1586 -0.5820 0.7976
vn 0.3096 0.9421 0.1282
vn 0.3454 0.9275 0.1431
vn -0.2402 0.7784 0.5799
vn -0.3112 -0.5820 0.7513
vn -0.2370 0.9421 -0.2370
vn -0.2644 0.9275 -0.2644
vn -0.3487 0.7784 0.5219
vn -0.4518 -0.5820 0.6761
vn 0.3287 0.9421 0.0654
vn 0.3667 0.9275 0.0729
vn -0.4439 0.7784 0.4439
vn -0.5750 -0.5820 0.5750
vn -0.2787 0.9421 -0.1862
vn -0.3109 0.9275 -0.2077
vn -0.5219 0.7784 0.3487
vn -0.6761 -0.5820 0.4518
vn 0.3352 0.9421 0.0000
vn 0.3739 0.9275 0.0000
vn -0.5799 0.7784 0.2402
vn -0.7513 -0.5820 0.3112
vn -0.3096 0.9421 -0.1282
vn -0.3454 0.9275 -0.1431
vn -0.6156 0.7784 0.1224
vn -0.7976 -0.5820 0.1586
vn 0.3287 0.9421 -0.0654
vn 0.3667 0.9275 -0.0729
vn -0.6277 0.7784 0.0000
vn -0.8132 -0.5820 0.0000
vn -0.3287 0.9421 -0.0654
vn -0.3667 0.9275 -0.0729
vn -0.6156 0.7784 -0.1224
vn -0.7976 -0.5820 -0.1586
vn 0.3096 0.9421 -0.1282
vn 0.3454 0.9275 -0.1431
vn -0.5799 0.7784 -0.2402
vn -0.7513 -0.5820 -0.3112
vn -0.3352 0.9421 0.0000
vn -0.3739 0.9275 0.0000
vn -0.5219 0.7784 -0.3487
vn -0.6761 -0.5820 -0.4518
vn 0.2787 0.9421 -0.1862
vn 0.3109 0.9275 -0.2077
vn -0.4439 0.7784 -0.4439
vn -0.5750 -0.5820 -0.5750
vn -0.3287 0.9421 0.0654
vn -0.3667 0.9275 0.0729
vn -0.3487 0.7784 -0.5219
vn -0.4518 -0.5820 -0.6761
vn 0.2370 0.9421 -0.2370
vn 0.2644 0.9275 -0.2644
vn -0.2402 0.7784 -0.5799
vn -0.3112 -0.5820 -0.7513
vn -0.1224 0.7784 -0.6156
vn -0.1586 -0.5820 -0.7976
usemtl Base_Brown
s off
f 1/1/1 2/2/1 4/3/1
f 1/1/1 4/3/1 6/4/1
f 1/1/1 6/4/1 8/5/1
f 1/1/1 8/5/1 10/6/1
f 1/1/1 10/6/1 12/7/1
f 1/1/1 12/7/1 14/8/1
f 1/1/1 14/8/1 16/9/1
f 1/1/1 16/9/1 18/10/1
f 1/1/1 18/10/1 20/11/1
f 1/1/1 20/11/1 22/12/1
f 1/1/1 22/12/1 24/13/1
f 1/1/1 24/13/1 26/14/1
f 1/1/1 26/14/1 28/15/1
f 1/1/1 28/15/1 30/16/1
f 1/1/1 30/16/1 32/17/1
f 1/1/1 32/17/1 34/18/1
f 1/1/1 34/18/1 36/19/1
f 1/1/1 36/19/1 38/20/1
f 1/1/1 38/20/1 40/21/1
f 1/1/1 40/21/1 42/22/1
f 1/1/1 42/22/1 44/23/1
f 1/1/1 44/23/1 46/24/1
f 1/1/1 46/24/1 48/25/1
f 1/1/1 48/25/1 50/26/1
f 1/1/1 50/26/1 52/27/1
f 1/1/1 52/27/1 54/28/1
f 1/1/1 54/28/1 56/29/1
f 1/1/1 56/29/1 58/30/1
f 1/1/1 58/30/1 60/31/1
f 1/1/1 60/31/1 62/32/1
f 1/1/1 62/32/1 64/33/1
f 1/1/1 64/33/1 2/2/1
f 99/34/2 100/35/2 98/36/2
f 99/34/2 101/37/2 100/35/2
f 99/34/2 102/38/2 101/37/2
f 99/34/2 103/39/2 102/38/2
f 99/34/2 104/40/2 103/39/2
f 99/34/2 105/41/2 104/40/2
f 99/34/2 106/42/2 105/41/2
f 99/34/2 107/43/2 106/42/2
f 99/34/2 108/44/2 107/43/2
f 99/34/2 109/45/2 108/44/2
f 99/34/2 110/46/2 109/45/2
f 99/34/2 111/47/2 110/46/2
f 99/34/2 112/48/2 111/47/2
f 99/34/2 113/49/2 112/48/2
f 99/34/2 114/50/2 113/49/2
f 99/34/2 115/51/2 114/50/2
f 99/34/2 116/52/2 115/51/2
f 99/34/2 117/53/2 116/52/2
f 99/34/2 118/54/2 117/53/2
f 99/34/2 119/55/2 118/54/2
f 99/34/2 120/56/2 119/55/2
f 99/34/2 121/57/2 120/56/2
f 99/34/2 122/58/2 121/57/2
f 99/34/2 123/59/2 122/58/2
f 99/34/2 124/60/2 123/59/2
f 99/34/2 125/61/2 124/60/2
f 99/34/2 126/62/2 125/61/2
f 99/34/2 127/63/2 126/62/2
f 99/34/2 128/64/2 127/63/2
f 99/34/2 129/65/2 128/64/2
f 99/34/2 130/66/2 129/65/2
f 99/34/2 98/36/2 130/66/2
s 1
f 72/67/3 71/68/4 104/40/5 105/41/6
f 2/69/7 3/70/8 5/71/9 4/72/10
f 85/73/11 84/74/12 117/53/13 118/54/14
f 4/72/10 5/71/9 7/75/15 6/76/16
f 67/77/17 97/78/18 130/66/19 98/36/20
f 6/76/16 7/75/15 9/79/21 8/80/22
f 71/68/4 70/81/23 103/39/24 104/40/5
f 8/80/22 9/79/21 11/82/25 10/83/26
f 84/74/12 83/84/27 116/52/28 117/53/13
f 10/83/26 11/82/25 13/85/29 12/86/30
f 97/78/18 96/87/31 129/65/32 130/66/19
f 12/86/30 13/85/29 15/88/33 14/89/34
f 70/81/23 69/90/35 102/38/36 103/39/24
f 14/89/34 15/88/33 17/91/37 16/92/38
f 83/84/27 82/93/39 115/51/40 116/52/28
f 16/92/38 17/91/37 19/94/41 18/95/42
f 96/87/31 95/96/43 128/64/44 129/65/32
f 18/95/42 19/94/41 21/97/45 20/98/46
f 69/90/35 68/99/47 101/37/48 102/38/36
f 20/98/46 21/97/45 23/100/49 22/101/50
f 82/93/39 81/102/51 114/50/52 115/51/40
f 22/101/50 23/100/49 25/103/53 24/104/54
f 95/96/43 94/105/55 127/63/56 128/64/44
f 24/104/54 25/103/53 27/106/57 26/107/58
f 68/99/47 66/108/59 100/35/60 101/37/48
f 26/107/58 27/106/57 29/109/61 28/110/62
f 81/102/51 80/111/63 113/49/64 114/50/52
f 28/110/62 29/109/61 31/112/65 30/113/66
f 94/105/55 93/114/67 126/62/68 127/63/56
f 30/113/66 31/112/65 33/115/69 32/116/70
f 66/108/59 67/77/17 98/36/20 100/35/60
f 32/116/70 33/115/69 35/117/71 34/118/72
f 80/111/63 79/119/73 112/48/74 113/49/64
f 34/118/72 35/117/71 37/120/75 36/121/76
f 93/114/67 92/122/77 125/61/78 126/62/68
f 36/121/76 37/120/75 39/123/79 38/124/80
f 79/119/73 78/125/81 111/47/82 112/48/74
f 38/124/80 39/123/79 41/126/83 40/127/84
f 92/122/77 91/128/85 124/60/86 125/61/78
f 40/127/84 41/126/83 43/129/87 42/130/88
f 78/125/81 77/131/89 110/46/90 111/47/82
f 42/130/88 43/129/87 45/132/91 44/133/92
f 91/128/85 90/134/93 123/59/94 124/60/86
f 44/133/92 45/132/91 47/135/95 46/136/96
f 77/131/89 76/137/97 109/45/98 110/46/90
f 46/136/96 47/135/95 49/138/99 48/139/100
f 90/134/93 89/140/101 122/58/102 123/59/94
f 48/139/100 49/138/99 51/141/103 50/142/104
f 76/137/97 75/143/105 108/44/106 109/45/98
f 50/142/104 51/141/103 53/144/107 52/145/108
f 89/140/101 88/146/109 121/57/110 122/58/102
f 52/145/108 53/144/107 55/147/111 54/148/112
f 75/143/105 74/149/113 107/43/114 108/44/106
f 54/148/112 55/147/111 57/150/115 56/151/116
f 88/146/109 87/152/117 120/56/118 121/57/110
f 56/151/116 57/150/115 59/153/119 58/154/120
f 74/149/113 73/155/121 106/42/122 107/43/114
f 58/154/120 59/153/119 61/156/123 60/157/124
f 87/152/117 86/158/125 119/55/126 120/56/118
f 60/157/124 61/156/123 63/159/127 62/160/128
f 73/155/121 72/67/3 105/41/6 106/42/122
f 62/160/128 63/159/127 65/161/129 64/162/130
f 86/158/125 85/73/11 118/54/14 119/55/126
f 64/162/130 65/161/129 3/163/8 2/164/7
f 67/77/17 66/108/59 5/165/9 3/166/8
f 66/108/59 68/99/47 7/167/15 5/165/9
f 68/99/47 69/90/35 9/168/21 7/167/15
f 69/90/35 70/81/23 11/169/25 9/168/21
f 70/81/23 71/68/4 13/170/29 11/169/25
f 71/68/4 72/67/3 15/171/33 13/170/29
f 72/67/3 73/155/121 17/172/37 15/171/33
f 73/155/121 74/149/113 19/173/41 17/172/37
f 74/149/113 75/143/105 21/174/45 19/173/41
f 75/143/105 76/137/97 23/175/49 21/174/45
f 76/137/97 77/131/89 25/176/53 23/175/49
f 77/131/89 78/125/81 27/177/57 25/176/53
f 78/125/81 79/119/73 29/178/61 27/177/57
f 79/119/73 80/111/63 31/179/65 29/178/61
f 80/111/63 81/102/51 33/180/69 31/179/65
f 81/102/51 82/93/39 35/181/71 33/180/69
f 82/93/39 83/84/27 37/182/75 35/181/71
f 83/84/27 84/74/12 39/183/79 37/182/75
f 84/74/12 85/73/11 41/184/83 39/183/79
f 85/73/11 86/158/125 43/185/87 41/184/83
f 86/158/125 87/152/117 45/186/91 43/185/87
f 87/152/117 88/146/109 47/187/95 45/186/91
f 88/146/109 89/140/101 49/188/99 47/187/95
f 89/140/101 90/134/93 51/189/103 49/188/99
f 90/134/93 91/128/85 53/190/107 51/189/103
f 91/128/85 92/122/77 55/191/111 53/190/107
f 92/122/77 93/114/67 57/192/115 55/191/111
f 93/114/67 94/105/55 59/193/119 57/192/115
f 94/105/55 95/96/43 61/194/123 59/193/119
f 95/96/43 96/87/31 63/195/127 61/194/123
f 96/87/31 97/78/18 65/196/129 63/195/127
f 97/78/18 67/77/17 3/166/8 65/196/129
