# Blender v2.79 (sub 0) OBJ File: 'Pyramid Parts.blend'
# www.blender.org
mtllib Bird_Brick.mtl
o Bird_Brick_Cube.002
v -1.072242 0.055555 6.774110
v -1.067578 0.166667 6.774110
v -1.072242 0.055555 5.440777
v -1.067578 0.166667 5.440777
v 0.927758 0.055555 6.774110
v 0.932422 0.166667 6.774110
v 0.927758 0.055555 5.440777
v 0.932422 0.166667 5.440777
v -1.072242 0.055555 5.588925
v -1.072242 0.055555 5.737073
v -1.072242 0.055555 5.885221
v -1.072242 0.055555 6.033370
v -1.072242 0.055555 6.181518
v -1.072242 0.055555 6.329666
v -1.072242 0.055555 6.477814
v -1.072242 0.055555 6.625962
v -1.067578 0.166667 6.625962
v -1.067578 0.166667 6.477814
v -1.067578 0.166667 6.329666
v -1.067578 0.166667 6.181518
v -1.067578 0.166667 6.033370
v -1.067578 0.166667 5.885221
v -1.067578 0.166667 5.737073
v -1.067578 0.166667 5.588925
v 0.927758 0.055555 6.625962
v 0.927758 0.055555 6.477814
v 0.927758 0.055555 6.329666
v 0.927758 0.055555 6.181518
v 0.927758 0.055555 6.033370
v 0.927758 0.055555 5.885221
v 0.927758 0.055555 5.737073
v 0.927758 0.055555 5.588925
v 0.932422 0.166667 5.588925
v 0.932422 0.166667 5.737073
v 0.932422 0.166667 5.885221
v 0.932422 0.166667 6.033370
v 0.932422 0.166667 6.181518
v 0.932422 0.166667 6.329666
v 0.932422 0.166667 6.477814
v 0.932422 0.166667 6.625962
v -1.067578 0.277778 5.588925
v -1.067578 0.277778 5.440777
v 0.932422 0.277778 5.440777
v -1.067578 0.277778 6.625962
v -1.067578 0.277778 6.477814
v -1.067578 0.277778 6.329666
v -1.067578 0.277778 6.181518
v -1.067578 0.277778 6.033370
v -1.067578 0.277778 5.885221
v -1.067578 0.277778 5.737073
v 0.932422 0.277778 5.588925
v 0.932422 0.277778 5.737073
v 0.932422 0.277778 5.885221
v 0.932422 0.277778 6.033370
v 0.932422 0.277778 6.181518
v 0.932422 0.277778 6.329666
v 0.932422 0.277778 6.477814
v 0.932422 0.277778 6.625962
v -1.067578 0.388889 5.588925
v -1.067578 0.388889 5.440777
v 0.932422 0.388889 5.440777
v -1.067578 0.388889 6.477814
v -1.067578 0.388889 6.329666
v -1.067578 0.388889 6.181518
v -1.067578 0.388889 6.033370
v -1.067578 0.388889 5.885221
v -1.067578 0.388889 5.737073
v 0.932422 0.388889 5.588925
v 0.932422 0.388889 5.737073
v 0.932422 0.388889 5.885221
v 0.932422 0.388889 6.033370
v 0.932422 0.388889 6.181518
v 0.932422 0.388889 6.329666
v 0.932422 0.388889 6.477814
v -1.067578 0.500000 5.588925
v -1.067578 0.500000 5.440777
v 0.932422 0.500000 5.440777
v -1.067578 0.500000 6.329666
v -1.067578 0.500000 6.181518
v -1.067578 0.500000 6.033370
v -1.067578 0.500000 5.885221
v -1.067578 0.500000 5.737073
v 0.932422 0.500000 5.588925
v 0.932422 0.500000 5.737073
v 0.932422 0.500000 5.885221
v 0.932422 0.500000 6.033370
v 0.932422 0.500000 6.181518
v 0.932422 0.500000 6.329666
v -1.067578 0.611111 5.588925
v -1.067578 0.611111 5.440777
v 0.932422 0.611111 5.440777
v -1.067578 0.611111 6.181518
v -1.067578 0.611111 6.033370
v -1.067578 0.611111 5.885221
v -1.067578 0.611111 5.737073
v 0.932422 0.611111 5.588925
v 0.932422 0.611111 5.737073
v 0.932422 0.611111 5.885221
v 0.932422 0.611111 6.033370
v 0.932422 0.611111 6.181518
v -1.067578 0.722222 5.588925
v -1.067578 0.722222 5.440777
v 0.932422 0.722222 5.440777
v -1.067578 0.722222 6.033370
v -1.067578 0.722222 5.885221
v -1.067578 0.722222 5.737073
v 0.932422 0.722222 5.588925
v 0.932422 0.722222 5.737073
v 0.932422 0.722222 5.885221
v 0.932422 0.722222 6.033370
v -1.067578 0.833333 5.588925
v -1.067578 0.833333 5.440777
v 0.932422 0.833333 5.440777
v -1.067578 0.833333 5.885221
v -1.067578 0.833333 5.737073
v 0.932422 0.833333 5.588925
v 0.932422 0.833333 5.737073
v 0.932422 0.833333 5.885221
v -1.067578 0.944444 5.588925
v -1.067578 0.944444 5.440777
v 0.932422 0.944444 5.440777
v -1.067578 0.944444 5.737073
v 0.932422 0.944444 5.588925
v 0.932422 0.944444 5.737073
v -1.067578 1.055555 5.588925
v -1.067578 1.055555 5.440777
v 0.932422 1.055555 5.440777
v 0.932422 1.055555 5.588925
vn -0.9991 0.0419 0.0000
vn 0.0000 0.0000 -1.0000
vn 0.9991 -0.0419 0.0000
vn 0.0000 0.0000 1.0000
vn 0.0000 -1.0000 0.0000
vn 0.0000 1.0000 0.0000
vn -1.0000 0.0000 0.0000
vn 1.0000 0.0000 0.0000
usemtl Blue
s off
f 9//1 24//1 4//1 3//1
f 3//2 4//2 8//2 7//2
f 25//3 40//3 6//3 5//3
f 5//4 6//4 2//4 1//4
f 16//5 25//5 5//5 1//5
f 40//6 17//6 2//6 6//6
f 23//7 22//7 49//7 50//7
f 37//8 36//8 54//8 55//8
f 22//7 21//7 48//7 49//7
f 36//8 35//8 53//8 54//8
f 4//7 24//7 41//7 42//7
f 21//7 20//7 47//7 48//7
f 35//8 34//8 52//8 53//8
f 20//7 19//7 46//7 47//7
f 3//5 7//5 32//5 9//5
f 9//5 32//5 31//5 10//5
f 10//5 31//5 30//5 11//5
f 11//5 30//5 29//5 12//5
f 12//5 29//5 28//5 13//5
f 13//5 28//5 27//5 14//5
f 14//5 27//5 26//5 15//5
f 15//5 26//5 25//5 16//5
f 7//3 8//3 33//3 32//3
f 32//3 33//3 34//3 31//3
f 31//3 34//3 35//3 30//3
f 30//3 35//3 36//3 29//3
f 29//3 36//3 37//3 28//3
f 28//3 37//3 38//3 27//3
f 27//3 38//3 39//3 26//3
f 26//3 39//3 40//3 25//3
f 1//1 2//1 17//1 16//1
f 16//1 17//1 18//1 15//1
f 15//1 18//1 19//1 14//1
f 14//1 19//1 20//1 13//1
f 13//1 20//1 21//1 12//1
f 12//1 21//1 22//1 11//1
f 11//1 22//1 23//1 10//1
f 10//1 23//1 24//1 9//1
f 45//4 57//4 74//4 62//4
f 41//7 50//7 67//7 59//7
f 57//8 56//8 73//8 74//8
f 42//7 41//7 59//7 60//7
f 50//7 49//7 66//7 67//7
f 56//8 55//8 72//8 73//8
f 49//7 48//7 65//7 66//7
f 57//6 45//6 44//6 58//6
f 38//8 37//8 55//8 56//8
f 24//7 23//7 50//7 41//7
f 39//8 38//8 56//8 57//8
f 8//2 4//2 42//2 43//2
f 40//8 39//8 57//8 58//8
f 18//7 17//7 44//7 45//7
f 33//8 8//8 43//8 51//8
f 17//4 40//4 58//4 44//4
f 19//7 18//7 45//7 46//7
f 34//8 33//8 51//8 52//8
f 70//8 69//8 84//8 85//8
f 69//8 68//8 83//8 84//8
f 61//2 60//2 76//2 77//2
f 68//8 61//8 77//8 83//8
f 60//7 59//7 75//7 76//7
f 59//7 67//7 82//7 75//7
f 73//6 63//6 62//6 74//6
f 43//2 42//2 60//2 61//2
f 51//8 43//8 61//8 68//8
f 52//8 51//8 68//8 69//8
f 46//7 45//7 62//7 63//7
f 53//8 52//8 69//8 70//8
f 47//7 46//7 63//7 64//7
f 54//8 53//8 70//8 71//8
f 48//7 47//7 64//7 65//7
f 55//8 54//8 71//8 72//8
f 82//7 81//7 94//7 95//7
f 84//8 83//8 96//8 97//8
f 77//2 76//2 90//2 91//2
f 87//8 86//8 99//8 100//8
f 81//7 80//7 93//7 94//7
f 87//6 79//6 78//6 88//6
f 64//7 63//7 78//7 79//7
f 71//8 70//8 85//8 86//8
f 65//7 64//7 79//7 80//7
f 72//8 71//8 86//8 87//8
f 66//7 65//7 80//7 81//7
f 63//4 73//4 88//4 78//4
f 73//8 72//8 87//8 88//8
f 67//7 66//7 81//7 82//7
f 93//4 99//4 110//4 104//4
f 97//8 96//8 107//8 108//8
f 90//7 89//7 101//7 102//7
f 94//7 93//7 104//7 105//7
f 99//6 93//6 92//6 100//6
f 85//8 84//8 97//8 98//8
f 75//7 82//7 95//7 89//7
f 80//7 79//7 92//7 93//7
f 86//8 85//8 98//8 99//8
f 79//4 87//4 100//4 92//4
f 76//7 75//7 89//7 90//7
f 83//8 77//8 91//8 96//8
f 101//7 106//7 115//7 111//7
f 108//8 107//8 116//8 117//8
f 103//2 102//2 112//2 113//2
f 109//6 105//6 104//6 110//6
f 95//7 94//7 105//7 106//7
f 91//2 90//2 102//2 103//2
f 98//8 97//8 108//8 109//8
f 89//7 95//7 106//7 101//7
f 99//8 98//8 109//8 110//8
f 96//8 91//8 103//8 107//8
f 113//2 112//2 120//2 121//2
f 111//7 115//7 122//7 119//7
f 117//6 115//6 114//6 118//6
f 105//4 109//4 118//4 114//4
f 102//7 101//7 111//7 112//7
f 109//8 108//8 117//8 118//8
f 107//8 103//8 113//8 116//8
f 106//7 105//7 114//7 115//7
f 119//4 123//4 128//4 125//4
f 123//6 119//6 122//6 124//6
f 115//4 117//4 124//4 122//4
f 116//8 113//8 121//8 123//8
f 112//7 111//7 119//7 120//7
f 117//8 116//8 123//8 124//8
f 127//6 126//6 125//6 128//6
f 123//8 121//8 127//8 128//8
f 121//2 120//2 126//2 127//2
f 120//7 119//7 125//7 126//7
