# Blender v2.79 (sub 0) OBJ File: 'Pyramid Parts.blend'
# www.blender.org
mtllib Dolphin_Brick.mtl
o Cloud_Brick_Cube.046
v -2.510899 5.343121 2.220906
v -1.313171 5.343121 1.023178
v -2.510899 5.343121 1.023178
v -1.313171 5.343121 2.220906
v -2.510899 6.641711 1.023178
v -1.313171 6.641711 1.023178
v -2.510899 6.641711 2.220906
v -1.313171 6.641711 2.220906
vn 0.0000 -1.0000 0.0000
vn 0.0000 1.0000 0.0000
vn 0.0000 0.0000 1.0000
vn 0.0000 0.0000 -1.0000
vn 1.0000 0.0000 0.0000
vn -1.0000 0.0000 0.0000
usemtl White
s off
f 2//1 4//1 1//1 3//1
f 6//2 5//2 7//2 8//2
f 1//3 4//3 8//3 7//3
f 2//4 3//4 5//4 6//4
f 4//5 2//5 6//5 8//5
f 3//6 1//6 7//6 5//6
