# Blender v2.79 (sub 0) OBJ File: 'Pyramid Parts.blend'
# www.blender.org
mtllib Island_West.mtl
o Island_West_Cube.089
v -22.026169 -2.544364 -25.388298
v -28.764328 -1.215281 24.106119
v -22.479609 -1.642187 -25.214781
v -35.720600 -2.693896 -28.292627
v -18.759819 -3.465278 13.492769
v -18.324886 -1.655924 12.831305
v -50.730316 -1.497449 -2.313990
v -51.894806 -2.297567 -13.402693
v -47.271473 -2.430940 -20.049644
v -28.538956 -4.228725 -28.415373
v -29.112562 -2.423012 -28.817776
v -30.128931 -4.614144 -25.731487
v -32.049686 -4.029449 -27.714001
v -51.106319 -1.331728 -9.887726
v -46.351826 -4.777385 -2.729600
v -51.431526 -1.380353 -16.843580
v -49.867767 -5.762905 6.346926
v -24.968685 -1.415096 -26.790459
v -50.161076 -2.237237 4.365410
v -30.618645 -1.589793 -28.554361
v -30.429943 -1.234228 -26.773117
v -40.545761 -1.096454 -23.987139
v -48.140331 -0.965759 -5.991995
v -34.150906 -3.411234 -27.976204
v -36.587273 -4.969815 -27.493010
v -41.221161 -4.026059 -9.347195
v -51.817802 -2.816772 -6.127922
v -47.807861 -0.585406 -18.443701
v -51.206001 -3.190839 -2.926921
v -51.685844 -1.069300 -13.405224
v -51.493149 -1.457628 -6.643350
v -52.067509 -3.007418 3.203063
v -51.513771 -1.611794 1.686058
v -44.503651 -0.337169 13.277870
v -49.230812 -0.617562 -9.708714
v -49.771637 -1.281413 0.710155
v -50.993580 -1.337155 -0.707947
v -47.066010 -1.444881 3.816551
v -51.062477 -2.754276 4.791706
v -51.035690 -5.064060 10.629452
v -51.638554 -5.406825 6.759860
v -51.119888 -4.247900 -5.203755
v -41.118549 -4.067670 2.671213
v -50.871906 -2.926601 7.237618
v -48.687054 -0.809575 12.003862
v -34.254589 -2.169546 27.572655
v -34.042908 -5.125558 27.121828
v -50.096092 -4.707235 -5.859249
v -50.024426 -4.539408 -2.107467
v -44.780647 -4.341954 19.768742
v -50.962994 -5.045120 1.672803
v -43.391689 -0.184128 17.868073
v -51.348194 -3.398187 1.007584
v -51.958740 -5.402587 3.738869
v -46.908524 -4.307490 14.161535
v -44.439526 -4.659992 11.152048
v -51.633003 -4.599385 9.976305
v -51.555252 -4.065298 6.321692
v -35.261700 -0.686145 25.694551
v -34.315948 -0.159410 19.684153
v -48.822704 -1.981519 7.222484
v -45.344704 -0.905288 18.015623
v -31.246706 -1.168759 24.903236
v -43.001301 -0.480346 20.266068
v -19.039055 -0.547591 1.606510
v -21.364964 -1.332388 17.738497
v -33.484570 0.038281 14.833307
v -25.898746 -0.366245 15.176750
v -39.399643 -0.018520 10.113613
v -29.926470 -4.450284 24.180124
v -30.569637 -2.647366 25.887632
v -34.328915 -4.148398 14.037775
v -25.263283 -3.704463 19.822506
v -24.556343 -2.002476 20.024485
v -18.589165 -1.539353 1.383901
v -19.282211 -1.068237 14.654705
v -18.863174 -1.269422 -9.260933
v -19.265404 -0.360934 9.659836
v -22.745638 -4.610289 15.230688
v -18.561905 -2.907585 6.016499
v -18.655083 -1.377613 -2.369567
v -20.165400 -0.703390 -6.070882
v -18.682980 -3.894216 7.669026
v -19.307781 -3.735625 -7.265144
v -19.090654 -3.873826 6.956015
v -19.667404 -3.657935 2.497550
v -19.090004 -3.915009 -4.615698
v -18.667156 -3.830557 -3.512768
v -25.926315 -2.714151 20.915123
v -22.323088 -2.062226 19.067533
v -23.878782 -0.994596 18.373785
v -20.636253 -0.764958 15.285387
v -26.061520 -3.985106 18.859575
v -21.787701 -3.225147 18.743595
v -18.360832 -3.533038 8.560230
v -23.941227 -4.056480 19.109676
v -18.884754 -3.373553 -0.370235
v -20.663820 -2.315156 17.833910
v -22.496147 -4.001788 3.810939
v -21.666035 -3.785121 18.121950
v -19.586153 -3.010667 16.361492
v -19.963985 -4.395233 14.933918
v -18.646435 -0.327572 8.397371
v -18.431854 -0.727394 10.094893
v -28.442905 -0.034686 19.580505
v -28.193886 -1.907278 23.984644
v -33.512218 -4.425818 27.601269
v -27.072485 -3.630073 21.414619
v -28.453558 -0.589673 22.258694
v -28.657120 -4.138184 24.153725
v -36.841713 -2.357630 25.823690
v -32.812748 -1.117556 26.359713
v -42.035366 -2.979080 21.582895
v -38.671333 -4.603789 23.354332
v -32.153748 -2.694769 27.055641
v -39.452549 0.225016 19.418236
v -36.553288 -3.928569 26.188572
v -45.617462 -2.436052 19.326220
v -47.791435 -1.163009 16.505413
v -50.870010 -4.083195 -8.080866
v -48.749996 -1.811958 14.886421
v -51.074661 -2.043633 10.204662
v -47.324135 -3.526935 16.190020
v -49.294201 -4.046119 13.079351
v -47.875134 -2.788565 16.355806
v -49.260830 -5.009912 -18.310560
v -51.508255 -2.559854 -9.754213
v -51.657349 -3.289309 -16.035749
v -39.293472 -4.283407 -26.338808
v -36.176094 -3.517819 -28.488373
v -43.635696 -2.987518 -23.681717
v -38.896297 -2.402778 -26.475357
v -47.121719 -4.185821 -19.681997
v -51.769234 -4.805362 -14.414000
v -44.374420 -4.746646 -22.579582
v -20.945034 -3.698488 -9.487679
v -20.754616 -3.321837 -13.668585
v -17.578693 -2.620842 -15.262640
v -17.224773 -0.896963 -20.535873
v -18.927521 -3.001467 -10.024611
v -22.760746 0.019433 -6.415922
v -29.001669 -0.356334 -20.483938
v -27.942745 -3.381302 -28.947914
v -25.615444 -4.576136 -26.934082
v -28.743219 -4.447490 -20.326653
v -17.012983 -1.005423 -18.204664
v -28.737379 -2.848596 24.964184
v -18.228025 -2.702029 -13.017496
v -17.660278 -1.772930 -14.884281
v -23.123085 -4.499420 -24.393518
v -48.457123 -0.775126 14.876902
v -23.370537 -4.583329 -23.419868
v -23.413059 -4.051770 -25.655243
v -22.030439 -1.229532 -24.350353
v -20.455101 -4.007879 -3.734930
v -24.224522 -3.660262 -26.687130
v -18.826729 -1.970845 -5.917189
v -25.128105 -3.790579 -14.596397
v -18.512510 -3.247130 -5.388337
v -19.202053 -0.510122 -10.801182
v -18.287756 -1.457064 -10.902859
v -18.793884 -3.560920 -6.883979
v -21.775898 -0.654659 -22.007982
v -19.693867 -0.323192 -1.930552
v -18.392204 -3.209583 -23.507326
v -18.151649 -2.193090 -10.877558
v -20.196442 -4.812295 -21.726694
v -16.705879 -1.776214 -16.805126
v -17.044180 -2.746186 -16.467783
v -17.447256 -3.614648 -19.419607
v -18.864510 -4.474755 -23.352055
v -16.905243 -2.322427 -20.717224
v -18.613583 -0.875691 -13.423756
v -19.588421 -1.868785 -23.526005
v -20.181108 -0.046379 -12.099525
v -21.359240 0.561488 -15.746397
v -18.138762 -2.065156 -22.405724
v -23.966429 0.224174 -11.131809
v -19.459970 -4.037265 -23.905762
v -18.056467 -0.053285 -16.796238
v -18.181244 -0.677243 -20.617147
vn -0.7162 -0.6964 0.0458
vn -0.8757 -0.4800 0.0513
vn -0.2561 -0.9666 0.0058
vn -0.4394 -0.8973 -0.0413
vn -0.4541 -0.8450 -0.2823
vn -0.9525 -0.2080 -0.2223
vn -0.1957 -0.4395 -0.8766
vn 0.0641 -0.5141 -0.8553
vn -0.4894 -0.3750 -0.7873
vn -0.2027 -0.6448 -0.7370
vn 0.0015 -0.9969 -0.0779
vn -0.0268 -0.8545 -0.5188
vn 0.2734 -0.0951 -0.9572
vn 0.0757 0.3049 -0.9493
vn -0.7450 0.4651 -0.4782
vn -0.2621 0.8823 -0.3909
vn -0.6260 0.1541 -0.7644
vn -0.9956 -0.0819 0.0440
vn -0.8688 -0.2523 -0.4260
vn -0.2650 0.8664 -0.4233
vn 0.0130 -0.7983 -0.6021
vn -0.1277 -0.9767 -0.1721
vn -0.0094 0.9878 -0.1554
vn -0.0604 0.6475 -0.7596
vn 0.4065 0.5141 -0.7552
vn -0.2318 0.5691 -0.7888
vn -0.4205 0.5342 -0.7333
vn -0.7172 0.6943 0.0595
vn -0.1198 0.9910 0.0594
vn -0.7255 0.6879 0.0177
vn -0.9713 -0.2159 0.0991
vn -0.9947 -0.0996 0.0243
vn -0.9983 0.0236 0.0532
vn -0.7220 0.6908 0.0376
vn -0.6307 0.7756 -0.0266
vn -0.0841 0.9956 0.0417
vn -0.0374 0.9947 -0.0956
vn 0.0291 -0.9977 0.0604
vn 0.0592 -0.9982 -0.0042
vn 0.9930 -0.0703 0.0950
vn 0.0319 -0.9995 0.0078
vn 0.0175 -0.9993 0.0339
vn 0.0525 -0.9984 -0.0225
vn -0.7023 0.7089 0.0641
vn -0.5510 0.8248 -0.1267
vn -0.5897 0.7653 0.2579
vn -0.2952 0.9336 0.2031
vn -0.7495 -0.6537 -0.1043
vn -0.7020 -0.7003 -0.1293
vn -0.9604 0.2678 0.0761
vn -0.9594 0.2774 0.0510
vn -0.7685 -0.6351 0.0777
vn -0.5033 -0.7551 0.4201
vn -0.9429 -0.2164 0.2532
vn -0.3224 0.9436 -0.0748
vn -0.7809 0.6219 0.0587
vn -0.6326 0.7650 -0.1209
vn 0.0082 -0.9999 -0.0082
vn -0.0779 0.9922 0.0967
vn -0.2548 0.9621 -0.0964
vn -0.1673 -0.9676 0.1892
vn 0.0462 -0.9980 0.0418
vn -0.4986 -0.6803 0.5371
vn -0.5905 0.7617 0.2666
vn -0.0483 0.9952 -0.0843
vn -0.1744 0.9831 0.0561
vn -0.0540 0.9867 0.1532
vn -0.5580 -0.5885 0.5850
vn -0.1934 0.9760 0.0995
vn -0.4281 0.7827 0.4518
vn -0.4054 0.7320 0.5475
vn -0.3971 0.7854 0.4748
vn 0.2582 0.8129 0.5221
vn 0.0485 0.9959 0.0764
vn 0.2398 0.8777 0.4148
vn 0.2668 0.9103 0.3164
vn -0.0054 0.9998 0.0169
vn 0.1708 0.9805 0.0972
vn 0.5838 0.8119 0.0054
vn 0.3363 0.9411 -0.0332
vn 0.3416 0.7706 -0.5381
vn -0.0047 0.9999 -0.0073
vn 0.0960 0.9936 0.0599
vn 0.4373 0.7490 0.4977
vn 0.6652 0.6706 0.3284
vn 0.1810 0.9659 0.1852
vn 0.2493 0.9068 0.3399
vn 0.7351 0.1705 0.6561
vn 0.4665 0.6863 0.5579
vn 0.0485 0.9902 0.1307
vn 0.0247 -0.9996 -0.0096
vn 0.0283 -0.9908 0.1319
vn 0.5228 0.3901 0.7580
vn 0.5911 -0.7184 0.3667
vn 0.0721 -0.1953 0.9781
vn 0.1920 -0.9773 0.0891
vn 0.8473 -0.2071 0.4890
vn 0.4736 0.3335 0.8151
vn 0.9562 0.2251 0.1870
vn 0.4357 0.8972 -0.0717
vn 0.7702 0.6355 -0.0537
vn 0.4372 0.3604 0.8240
vn 0.5370 -0.3251 0.7784
vn 0.3066 -0.9479 -0.0866
vn 0.7238 -0.6893 0.0312
vn 0.4570 -0.7383 0.4960
vn 0.4622 -0.8652 0.1942
vn 0.0973 -0.9758 -0.1956
vn 0.2572 -0.8273 -0.4994
vn 0.5316 -0.3319 -0.7792
vn -0.0431 -0.9981 -0.0443
vn 0.1134 -0.9924 0.0482
vn 0.4690 -0.6647 -0.5816
vn 0.4809 0.8767 -0.0086
vn 0.8787 0.4772 -0.0100
vn 0.8325 0.5188 0.1945
vn 0.3116 -0.9365 -0.1608
vn 0.5093 -0.8573 -0.0751
vn 0.9759 -0.1669 0.1406
vn 0.4937 0.1589 -0.8549
vn 0.2922 0.8524 -0.4335
vn 0.5171 0.5263 -0.6750
vn 0.9106 0.4075 -0.0688
vn 0.2822 0.9553 0.0884
vn 0.8997 0.4111 0.1463
vn 0.5356 0.8381 0.1037
vn 0.0933 0.9727 -0.2122
vn -0.5847 0.7128 -0.3873
vn 0.6541 -0.7488 0.1070
vn 0.1692 -0.9814 -0.0909
vn 0.1740 -0.9846 0.0168
vn 0.3375 -0.9379 -0.0802
vn 0.7717 -0.6152 -0.1614
vn 0.9715 0.1398 0.1914
vn 0.9363 0.1424 0.3210
vn 0.7526 -0.6019 0.2670
vn 0.7347 -0.6055 0.3059
vn -0.5318 -0.5939 -0.6037
vn -0.6854 0.1190 -0.7183
vn -0.5949 0.2873 -0.7507
vn -0.7372 -0.3811 -0.5579
vn -0.7855 -0.2315 0.5738
vn -0.8797 0.0637 0.4712
vn -0.5887 -0.7017 0.4012
vn -0.6982 0.1485 0.7003
vn -0.6994 0.4513 0.5542
vn -0.5702 0.0101 0.8214
vn -0.3326 -0.8889 0.3150
vn -0.0878 -0.8232 0.5609
vn -0.5159 -0.2310 0.8249
vn -0.2218 -0.1268 0.9668
vn -0.4750 0.4301 0.7677
vn 0.3875 0.1563 0.9085
vn 0.5880 -0.7011 0.4034
vn 0.7077 0.3705 0.6016
vn 0.6515 0.0374 0.7577
vn 0.6122 -0.4205 0.6696
vn 0.7682 -0.5238 -0.3680
vn 0.4531 -0.8800 -0.1421
vn 0.9225 -0.3853 -0.0244
vn 0.3182 -0.9478 0.0197
vn 0.9467 -0.3115 -0.0821
vn 0.8112 0.5802 0.0720
vn 0.9887 0.1481 -0.0230
vn 0.1701 -0.8315 0.5289
vn 0.2127 -0.8151 0.5388
vn 0.9671 -0.2507 -0.0434
vn 0.8817 -0.4597 0.1056
vn 0.8720 -0.4574 0.1743
vn 0.3628 -0.4242 -0.8297
vn 0.4219 0.6678 -0.6131
vn 0.8570 -0.0368 -0.5140
vn 0.5318 -0.7335 -0.4232
vn 0.6349 -0.7699 0.0649
vn 0.4913 0.8687 0.0626
vn 0.6864 0.7079 0.1663
vn 0.9514 -0.0961 -0.2925
vn 0.1823 0.9246 -0.3345
vn 0.7104 0.3858 -0.5886
vn 0.6719 0.6572 -0.3416
vn 0.8523 0.5229 -0.0104
usemtl Black
s 1
f 42//1 120//2 48//3
f 49//4 51//5 53//6
f 130//7 24//8 129//9
f 25//10 129//9 24//8
f 12//11 25//10 13//12
f 143//13 24//8 11//14
f 16//15 28//16 9//17
f 8//18 16//15 128//19
f 9//17 28//16 22//20
f 10//21 24//8 143//13
f 26//22 25//10 12//11
f 25//10 24//8 13//12
f 21//23 20//24 22//20
f 10//21 13//12 24//8
f 13//12 10//21 12//11
f 20//24 11//14 24//8
f 11//14 20//24 18//25
f 4//26 132//27 22//20
f 9//17 128//19 16//15
f 28//16 21//23 22//20
f 14//28 35//29 30//30
f 30//30 28//16 16//15
f 42//1 29//31 27//32
f 22//20 20//24 4//26
f 27//32 14//28 127//33
f 42//1 49//4 29//31
f 14//28 8//18 127//33
f 28//16 35//29 21//23
f 14//28 30//30 8//18
f 14//28 31//34 35//29
f 132//27 9//17 22//20
f 14//28 27//32 31//34
f 16//15 8//18 30//30
f 27//32 29//31 7//35
f 31//34 23//36 35//29
f 7//35 31//34 27//32
f 21//23 18//25 20//24
f 23//36 21//23 35//29
f 35//29 28//16 30//30
f 23//36 31//34 7//35
f 18//25 21//23 142//37
f 79//38 155//39 99//40
f 15//41 26//22 145//42
f 15//41 43//43 51//5
f 33//44 37//45 29//31
f 33//44 29//31 53//6
f 39//46 19//47 33//44
f 134//48 48//3 120//2
f 54//49 58//50 32//51
f 41//52 40//53 57//54
f 39//46 61//55 19//47
f 58//50 122//56 44//57
f 54//49 43//43 17//58
f 40//53 41//52 17//58
f 33//44 19//47 36//59
f 49//4 15//41 51//5
f 53//6 29//31 49//4
f 122//56 45//60 61//55
f 55//61 56//62 50//63
f 49//4 48//3 15//41
f 151//64 34//65 45//60
f 32//51 33//44 53//6
f 54//49 53//6 51//5
f 54//49 41//52 58//50
f 40//53 17//58 56//62
f 38//66 34//65 116//67
f 39//46 44//57 61//55
f 49//4 42//1 48//3
f 54//49 32//51 53//6
f 122//56 61//55 44//57
f 19//47 61//55 38//66
f 58//50 41//52 57//54
f 44//57 39//46 58//50
f 56//62 55//61 40//53
f 38//66 23//36 36//59
f 54//49 51//5 43//43
f 54//49 17//58 41//52
f 61//55 34//65 38//66
f 124//68 40//53 55//61
f 34//65 52//69 116//67
f 45//60 34//65 61//55
f 151//64 52//69 34//65
f 151//64 62//70 52//69
f 116//67 52//69 64//71
f 59//72 112//73 116//67
f 60//74 112//73 63//75
f 112//73 60//74 116//67
f 60//74 109//76 67//77
f 78//78 103//79 141//80
f 60//74 69//81 116//67
f 178//82 67//77 78//78
f 38//66 69//81 67//77
f 36//59 37//45 33//44
f 68//83 78//78 67//77
f 23//36 7//35 36//59
f 66//84 76//85 92//86
f 91//87 78//78 68//83
f 69//81 60//74 67//77
f 122//56 58//50 57//54
f 76//85 66//84 98//88
f 92//86 78//78 91//87
f 109//76 60//74 63//75
f 67//77 142//37 23//36
f 142//37 21//23 23//36
f 38//66 116//67 69//81
f 63//75 2//89 109//76
f 67//77 109//76 105//90
f 67//77 105//90 68//83
f 72//91 56//62 155//39
f 72//91 155//39 79//38
f 68//83 105//90 91//87
f 79//38 93//92 72//91
f 37//45 7//35 29//31
f 109//76 74//93 91//87
f 110//94 107//95 70//96
f 38//66 67//77 23//36
f 70//96 72//91 93//92
f 101//97 76//85 98//88
f 2//89 63//75 71//98
f 76//85 78//78 92//86
f 76//85 101//97 6//99
f 164//100 103//79 65//101
f 66//84 90//102 98//88
f 94//103 101//97 98//88
f 37//45 36//59 7//35
f 158//104 155//39 145//42
f 43//43 145//42 155//39
f 43//43 155//39 56//62
f 155//39 88//105 99//40
f 32//51 39//46 33//44
f 101//97 100//106 102//107
f 36//59 19//47 38//66
f 17//58 43//43 56//62
f 32//51 58//50 39//46
f 150//108 12//11 144//109
f 12//11 150//108 145//42
f 144//109 10//21 156//110
f 145//42 26//22 12//11
f 158//104 152//111 167//112
f 156//110 10//21 143//13
f 10//21 144//109 12//11
f 156//110 153//113 144//109
f 82//114 157//115 77//116
f 84//117 140//118 166//119
f 11//14 1//120 143//13
f 152//111 158//104 145//42
f 152//111 145//42 150//108
f 142//37 154//121 18//25
f 18//25 154//121 3//122
f 82//114 81//123 157//115
f 141//80 175//124 178//82
f 77//116 161//125 160//126
f 178//82 78//78 141//80
f 178//82 163//127 142//37
f 156//110 143//13 1//120
f 175//124 176//128 178//82
f 3//122 11//14 18//25
f 150//108 144//109 153//113
f 148//129 136//130 137//131
f 87//132 84//117 162//133
f 168//134 149//135 169//136
f 137//131 138//137 148//129
f 135//138 133//139 131//140
f 131//140 9//17 132//27
f 133//139 128//19 9//17
f 134//48 133//139 126//141
f 131//140 132//27 130//7
f 131//140 130//7 129//9
f 132//27 4//26 130//7
f 4//26 20//24 130//7
f 128//19 127//33 8//18
f 128//19 134//48 127//33
f 135//138 126//141 133//139
f 135//138 131//140 129//9
f 127//33 134//48 120//2
f 15//41 134//48 126//141
f 124//68 125//142 121//143
f 124//68 121//143 40//53
f 123//144 50//63 118//145
f 126//141 26//22 15//41
f 55//61 123//144 124//68
f 123//144 118//145 125//142
f 50//63 123//144 55//61
f 122//56 151//64 45//60
f 122//56 57//54 121//143
f 121//143 57//54 40//53
f 121//143 125//142 118//145
f 119//146 62//70 151//64
f 118//145 119//146 121//143
f 113//147 64//71 118//145
f 114//148 47//149 117//150
f 116//67 46//151 59//72
f 113//147 111//152 64//71
f 116//67 64//71 111//152
f 46//151 112//73 59//72
f 115//153 117//150 107//95
f 112//73 71//98 63//75
f 46//151 115//153 112//73
f 62//70 119//146 118//145
f 116//67 111//152 46//151
f 113//147 50//63 114//148
f 47//149 72//91 70//96
f 110//94 70//96 108//154
f 106//155 147//156 89//157
f 2//89 71//98 106//155
f 111//152 117//150 115//153
f 109//76 2//89 106//155
f 106//155 89//157 74//93
f 109//76 91//87 105//90
f 147//156 71//98 107//95
f 89//157 147//156 108//154
f 83//158 85//159 95//160
f 85//159 86//161 80//162
f 95//160 85//159 80//162
f 80//162 104//163 95//160
f 75//164 104//163 80//162
f 103//79 78//78 104//163
f 96//165 94//103 73//166
f 76//85 6//99 104//163
f 103//79 75//164 65//101
f 104//163 78//78 76//85
f 104//163 6//99 95//160
f 157//115 159//167 77//116
f 96//165 73//166 93//92
f 101//97 94//103 100//106
f 83//158 102//107 85//159
f 89//157 94//103 74//93
f 88//105 97//168 86//161
f 75//164 80//162 97//168
f 81//123 75//164 88//105
f 100//106 94//103 96//165
f 90//102 94//103 98//88
f 93//92 73//166 108//154
f 81//123 65//101 75//164
f 102//107 96//165 79//38
f 93//92 108//154 70//96
f 154//121 142//37 163//127
f 66//84 74//93 90//102
f 74//93 66//84 91//87
f 94//103 89//157 73//166
f 5//169 101//97 102//107
f 142//37 67//77 178//82
f 97//168 80//162 86//161
f 164//100 65//101 81//123
f 87//132 88//105 155//39
f 159//167 81//123 88//105
f 5//169 102//107 83//158
f 140//118 148//129 166//119
f 6//99 101//97 5//169
f 43//43 15//41 145//42
f 179//170 150//108 153//113
f 99//40 88//105 86//161
f 86//161 85//159 99//40
f 1//120 174//171 165//172
f 158//104 137//131 136//130
f 100//106 96//165 102//107
f 82//114 164//100 81//123
f 5//169 95//160 6//99
f 102//107 99//40 85//159
f 102//107 79//38 99//40
f 157//115 81//123 159//167
f 3//122 154//121 1//120
f 103//79 104//163 75//164
f 150//108 179//170 171//173
f 159//167 87//132 162//133
f 84//117 166//119 161//125
f 154//121 174//171 1//120
f 5//169 83//158 95//160
f 1//120 179//170 153//113
f 152//111 150//108 171//173
f 108//154 73//166 89//157
f 114//148 56//62 72//91
f 47//149 107//95 117//150
f 71//98 115//153 107//95
f 147//156 106//155 71//98
f 90//102 74//93 94//103
f 56//62 114//148 50//63
f 110//94 108//154 147//156
f 156//110 1//120 153//113
f 159//167 162//133 77//116
f 137//131 169//136 138//137
f 84//117 136//130 140//118
f 66//84 92//86 91//87
f 115//153 71//98 112//73
f 75//164 97//168 88//105
f 170//174 137//131 158//104
f 169//136 137//131 170//174
f 147//156 107//95 110//94
f 114//148 117//150 113//147
f 113//147 117//150 111//152
f 84//117 87//132 155//39
f 161//125 138//137 149//135
f 133//139 9//17 131//140
f 160//126 141//80 82//114
f 175//124 180//175 176//128
f 84//117 161//125 162//133
f 50//63 113//147 118//145
f 161//125 173//176 160//126
f 175//124 160//126 173//176
f 72//91 47//149 114//148
f 77//116 160//126 82//114
f 173//176 180//175 175//124
f 161//125 77//116 162//133
f 74//93 109//76 106//155
f 148//129 138//137 161//125
f 128//19 133//139 134//48
f 79//38 96//165 93//92
f 26//22 126//141 25//10
f 166//119 148//129 161//125
f 167//112 152//111 171//173
f 136//130 148//129 140//118
f 27//32 127//33 120//2
f 62//70 64//71 52//69
f 124//68 123//144 125//142
f 48//3 134//48 15//41
f 120//2 42//1 27//32
f 24//8 130//7 20//24
f 136//130 155//39 158//104
f 173//176 161//125 149//135
f 11//14 3//122 1//120
f 84//117 155//39 136//130
f 126//141 135//138 25//10
f 141//80 160//126 175//124
f 121//143 119//146 151//64
f 122//56 121//143 151//64
f 107//95 47//149 70//96
f 62//70 118//145 64//71
f 46//151 111//152 115//153
f 168//134 173//176 149//135
f 129//9 25//10 135//138
f 103//79 164//100 141//80
f 170//174 172//177 169//136
f 138//137 169//136 149//135
f 181//178 174//171 163//127
f 171//173 170//174 167//112
f 174//171 177//179 165//172
f 177//179 139//180 172//177
f 171//173 177//179 172//177
f 88//105 87//132 159//167
f 141//80 164//100 82//114
f 171//173 165//172 177//179
f 139//180 177//179 181//178
f 170//174 158//104 167//112
f 181//178 177//179 174//171
f 172//177 168//134 169//136
f 178//82 176//128 181//178
f 170//174 171//173 172//177
f 146//181 139//180 180//175
f 171//173 179//170 165//172
f 163//127 174//171 154//121
f 139//180 146//181 172//177
f 176//128 180//175 181//178
f 168//134 180//175 173//176
f 180//175 168//134 146//181
f 168//134 172//177 146//181
f 1//120 165//172 179//170
f 163//127 178//82 181//178
f 139//180 181//178 180//175
