# Blender v2.79 (sub 0) OBJ File: 'Pyramid Parts.blend'
# www.blender.org
mtllib Pyramid_Base.mtl
o Pyramid_Base_Cube.041
v -5.730770 0.055556 5.440777
v -4.397437 1.054889 4.107443
v -5.730770 0.055556 -5.884052
v -4.397437 1.054889 -4.550719
v 5.594059 0.055556 5.440777
v 4.260725 1.054889 4.107443
v 5.594059 0.055556 -5.884052
v 4.260725 1.054889 -4.550719
v -5.730770 1.054889 5.440777
v -5.730770 1.054889 -5.884052
v 5.594059 1.054889 -5.884052
v 5.594059 1.054889 5.440777
v -3.064103 2.053111 2.774110
v -3.064103 2.053111 -3.217386
v 2.927392 2.053111 -3.217386
v 2.927392 2.053111 2.774110
v -4.397437 2.053111 4.107443
v -4.397437 2.053111 -4.550719
v 4.260725 2.053111 -4.550719
v 4.260725 2.053111 4.107443
v -3.064103 3.053110 2.774110
v -3.064103 3.053110 -3.217386
v 2.927392 3.053110 -3.217386
v 2.927392 3.053110 2.774110
vn -1.0000 0.0000 0.0000
vn 0.0000 0.0000 -1.0000
vn 1.0000 0.0000 0.0000
vn 0.0000 0.0000 1.0000
vn 0.0000 -1.0000 0.0000
vn 0.0000 1.0000 0.0000
usemtl Gray
s off
f 1//1 9//1 10//1 3//1
f 3//2 10//2 11//2 7//2
f 7//3 11//3 12//3 5//3
f 5//4 12//4 9//4 1//4
f 3//5 7//5 5//5 1//5
f 6//3 8//3 19//3 20//3
f 2//6 4//6 10//6 9//6
f 4//6 8//6 11//6 10//6
f 8//6 6//6 12//6 11//6
f 6//6 2//6 9//6 12//6
f 13//4 16//4 24//4 21//4
f 4//1 2//1 17//1 18//1
f 2//4 6//4 20//4 17//4
f 8//2 4//2 18//2 19//2
f 13//6 14//6 18//6 17//6
f 14//6 15//6 19//6 18//6
f 15//6 16//6 20//6 19//6
f 16//6 13//6 17//6 20//6
f 15//2 14//2 22//2 23//2
f 16//3 15//3 23//3 24//3
f 14//1 13//1 21//1 22//1
f 24//6 23//6 22//6 21//6
