# Blender v2.79 (sub 0) OBJ File: 'Pyramid Parts.blend'
# www.blender.org
mtllib Sand_Hill.mtl
o Sand_Hill_Icosphere.003
v -26.826015 1.619640 12.877752
v -33.347496 1.146707 12.564230
v -23.304319 -0.368766 7.118983
v -35.226532 -0.527483 10.185094
v -31.426762 -0.439277 13.464382
v -33.377121 -1.000147 4.448271
v -35.184162 -0.489692 6.126510
v -26.130836 -1.023024 4.126358
v -35.063438 1.346862 7.585944
v -32.420979 1.098830 4.339846
v -25.685495 1.549712 6.266599
v -28.718643 2.254587 10.826823
v -27.137167 2.616810 8.734327
v -32.819942 2.592826 6.706468
v -34.177902 -0.721362 5.522411
v -31.758936 0.079604 4.044727
v -35.363617 -0.048938 7.051750
v -35.342125 -0.430251 7.592429
v -27.075705 2.399335 9.405655
v -27.383099 0.936419 13.365026
v -32.465958 2.709669 9.832036
v -34.934662 1.237833 9.717315
v -34.883442 1.229234 6.354965
v -35.314934 0.404280 6.662682
v -27.012562 0.443798 13.261152
v -28.425764 2.257350 6.117272
v -26.989805 2.472342 8.177924
v -27.812923 2.406658 9.302949
v -35.349251 0.418712 8.620055
v -32.119858 2.205513 10.929320
v -32.211609 2.872126 6.118541
v -29.981850 2.613906 10.072503
v -34.639965 1.710809 8.129164
v -33.836220 1.681586 10.067552
v -33.166344 -0.478590 12.664812
v -30.249802 1.418625 13.092852
v -32.657192 2.178151 5.777642
v -34.296707 -0.427270 11.619698
v -29.564621 1.755328 12.408341
v -30.578674 -0.452695 13.586553
v -35.163235 0.863608 8.014649
v -33.762943 -0.849302 5.054588
v -31.938385 -0.437263 13.230525
v -34.675716 -0.604661 5.825344
v -29.477440 1.013489 13.409032
v -33.498959 2.268665 6.917234
v -33.697105 2.025530 8.787963
v -34.751972 1.718495 7.225929
v -31.013033 2.754496 10.141250
v -35.295246 -0.495759 6.754864
v -35.449318 -0.408508 8.765609
v -28.691006 2.404919 8.327769
v -33.886925 -0.093962 12.183468
v -34.830406 0.737416 6.038455
v -31.991899 0.724159 13.111996
v -33.325447 0.185794 12.730257
v -32.687431 -0.116267 13.023487
v -26.277725 0.181635 12.908440
v -32.985027 2.434943 9.477207
v -28.017794 1.964310 11.404796
v -34.132313 1.555546 10.473208
v -32.030987 2.937203 8.509085
v -32.612949 2.770213 7.149130
v -34.461678 1.164763 6.000706
v -34.939587 1.333606 8.533191
v -30.924713 2.803261 7.653212
v -26.812805 1.926886 10.918717
v -35.253922 0.839510 7.067575
v -35.486774 -0.099107 9.389155
v -35.305920 -0.122219 6.341130
v -35.379597 0.153426 7.853456
v -33.952324 1.145746 5.724532
v -34.170555 -0.159305 5.624339
v -33.375496 0.771054 12.719168
v -34.702057 0.149963 11.258692
v -33.805614 0.734181 5.585429
v -31.839329 0.045123 13.321865
v -32.488102 1.020838 12.944733
v -31.166922 0.710001 13.199393
v -25.891842 1.719610 11.797995
v -28.945538 1.692343 12.757104
v -28.898003 1.984154 11.656053
v -24.369915 1.677965 8.438215
v -27.632265 1.636925 13.027508
v -33.001259 1.263069 12.536153
v -31.631706 1.016308 12.897488
v -31.579706 1.293918 12.372395
v -32.821331 1.773948 5.676341
v -32.912258 1.341195 11.796150
v -34.142624 0.757897 11.969992
v -34.605762 0.462991 5.823050
v -35.151703 0.656058 6.381807
v -35.085030 1.040350 9.036901
v -35.102242 0.244700 6.113627
v -35.087959 1.264880 6.826939
v -35.284981 0.226602 10.037746
v -29.183336 1.525679 13.130520
v -34.734669 1.547423 9.161660
v -34.784630 1.503863 6.635910
v -33.137802 1.461880 11.278246
v -33.292809 2.007802 6.253488
v -34.429924 1.568492 10.382030
v -31.844381 2.923303 9.377928
v -30.834150 2.832783 9.477324
v -31.742477 3.038049 6.710965
v -31.158709 2.935291 9.065379
v -30.907877 2.681982 10.614532
v -32.309559 2.977097 6.870512
v -32.581875 2.481151 10.214702
v -29.547047 2.510193 10.515045
v -34.976398 -0.113195 5.937724
v -34.991634 -0.171491 10.756393
v -29.129370 2.399460 10.043949
v -26.450848 2.207452 7.541499
v -29.487411 2.626365 6.633474
v -31.476120 2.872341 5.910044
v -28.145145 2.428349 8.799328
v -30.186749 2.673900 9.014933
v -30.025566 2.716659 7.200933
v -33.876648 2.102337 8.153260
v -31.445354 0.960756 4.249657
v -30.761723 1.284075 4.625273
v -24.848595 -0.329889 12.581521
v -24.473757 1.379002 10.890611
v -23.028191 -0.234666 10.279109
v -23.141548 -0.249381 8.707088
v -23.382448 -0.279735 10.820963
v -25.247532 2.169577 9.568801
v -24.875870 1.804435 10.511608
v -29.865248 -0.262865 3.616771
v -23.713867 0.851346 9.424191
v -27.115028 1.220707 4.768044
v -24.696819 -0.669854 5.606866
v -26.014084 2.174582 10.209202
v -24.001568 0.442073 6.859472
v -24.954285 1.097305 6.528762
v -24.126671 -0.531633 6.195817
v -23.202002 -0.293600 7.924788
v -27.813343 0.242809 3.943003
v -28.370762 1.632161 5.189151
v -29.774359 1.485130 4.923176
v -25.823090 2.497975 8.907695
v -24.211805 1.687014 8.924176
v -24.336903 -0.332368 12.024576
v -24.770393 1.284588 11.623085
v -26.430422 1.212500 12.830961
v -25.516542 0.981141 12.282092
v -25.594896 0.180168 5.006880
v -23.459072 0.362253 7.854508
v -26.628275 1.346653 5.142928
v -32.304764 1.195559 12.470452
v -24.321068 1.663922 9.353717
v -26.252151 2.452211 9.344893
v -24.878212 1.642888 7.574111
v -23.260918 0.287343 9.856842
v -24.046877 0.866884 7.541173
v -23.911404 1.229530 8.593568
v -25.155693 1.595736 7.097924
v -34.196526 1.821327 9.061817
v -25.123371 1.909083 11.183077
v -28.206367 -1.236912 3.548444
v -31.892529 -1.329556 3.851413
v -30.100374 -1.340040 3.185575
v -30.486294 0.060152 13.489546
v -32.732029 0.617781 13.063450
v -32.773159 -0.001487 4.447822
v -31.037598 -1.370858 3.521734
v -32.679691 -1.197771 4.163597
v -27.156019 -1.157429 3.807833
v -34.506443 1.229434 11.159130
v -29.447634 -1.146170 3.365553
v -33.536129 -0.516435 4.811686
v -29.453157 0.317490 3.811907
v -33.261627 0.606535 5.195916
v -31.698267 1.941730 4.901912
v -31.288786 2.443674 5.383652
v -29.154861 0.828838 3.999063
v -32.128700 1.560916 4.616728
v -31.879616 1.031908 4.259455
v -33.292343 1.114792 5.480622
v -23.086002 -0.226108 9.384660
v -25.535374 2.261547 8.383687
v -31.825022 2.637612 10.450325
v -32.585506 2.812340 8.984317
v -31.180887 2.382549 11.129624
v -31.034657 1.692429 11.770144
v -30.486891 1.841342 11.700769
v -32.452930 2.996810 7.780655
v -33.325321 2.354359 7.367093
v -34.261608 1.661905 6.372828
v -25.426922 0.980907 5.750327
v -28.119913 2.192037 6.706232
v -32.988430 0.959648 4.991931
v -32.317459 2.190717 5.277139
v -27.864204 2.404789 8.133851
v -28.763615 2.536991 7.092594
v -31.696926 2.908389 7.539820
v -31.899734 2.919139 5.965441
v -29.751080 2.490397 6.055510
v -25.630011 -0.920846 4.647655
v -30.232075 2.613913 8.119169
v -33.643902 0.133663 5.262344
v -24.527271 0.137436 6.076355
v -28.703075 0.310693 13.758072
v -28.348879 1.180237 13.332941
v -29.977676 -0.409891 13.680565
v -25.766539 0.613506 12.659340
v -28.343401 -0.321131 13.969492
v -26.488422 -0.337426 13.000203
v -27.718546 -0.327892 13.621487
v -27.200113 1.876345 12.452328
v -25.528461 -0.336613 12.742138
v -29.746599 2.406255 10.894078
v -34.976860 0.784581 10.541849
v -30.424465 2.602445 5.859133
v -31.968899 2.452046 5.383109
v -29.700739 1.979549 11.604151
v -30.920687 0.325189 13.386798
v -32.879044 2.516014 7.800462
v -33.219879 2.256908 8.521129
v -34.272270 1.984690 6.913027
v -28.510363 2.303829 10.242884
v -30.791430 2.866520 6.482433
v -29.083689 2.461455 8.812200
v -28.526415 2.342550 9.179994
v -26.870752 1.789224 6.089819
v -34.080181 2.113966 7.605968
v -33.185219 1.721167 10.624776
v -32.238514 1.719617 11.337696
v -33.351406 2.054050 9.611738
vn -0.4375 0.6486 0.6228
vn -0.5612 0.1767 0.8086
vn -0.3150 0.1810 0.9317
vn 0.1276 0.9908 0.0448
vn 0.2250 0.9741 -0.0224
vn 0.1754 0.9839 0.0338
vn -0.7976 -0.0750 -0.5985
vn -0.5731 0.0395 -0.8185
vn -0.4436 0.0085 -0.8962
vn -0.1944 0.7248 0.6609
vn -0.1296 0.7562 0.6413
vn -0.1770 0.4027 0.8980
vn -0.1456 0.6122 -0.7772
vn 0.0500 0.6271 -0.7773
vn 0.0018 0.4676 -0.8839
vn -0.9525 0.3046 0.0013
vn -0.9505 0.1634 0.2643
vn -0.9062 0.4191 0.0564
vn -0.4303 0.8609 -0.2715
vn -0.3847 0.7282 -0.5672
vn -0.5944 0.7121 -0.3736
vn -0.2065 0.1158 0.9716
vn -0.1405 0.2070 0.9682
vn -0.1448 0.2597 0.9548
vn -0.9637 0.1808 -0.1961
vn -0.9392 0.0104 -0.3432
vn -0.9986 -0.0239 -0.0472
vn -0.5366 0.8099 -0.2370
vn -0.5955 0.7999 -0.0736
vn -0.4426 0.8359 -0.3245
vn -0.9926 0.0193 0.1198
vn -0.9925 0.1188 -0.0298
vn -0.4277 0.1700 -0.8878
vn -0.7490 0.1875 -0.6355
vn -0.5938 0.3023 -0.7456
vn -0.9971 -0.0614 -0.0438
vn -0.5370 -0.2549 0.8041
vn -0.5807 -0.1079 0.8069
vn -0.7051 -0.1148 0.6997
vn -0.8311 0.0028 0.5561
vn -0.8635 0.5000 0.0654
vn -0.9628 0.2653 -0.0516
vn -0.9463 0.3196 0.0484
vn -0.6555 0.5203 -0.5472
vn -0.4422 0.4937 -0.7487
vn -0.8485 0.4887 -0.2031
vn -0.4903 0.1195 -0.8633
vn -0.5982 0.1857 -0.7795
vn -0.9865 -0.1377 -0.0877
vn -0.9976 -0.0569 -0.0391
vn -0.4508 0.3724 -0.8112
vn -0.7275 0.3702 -0.5777
vn -0.6569 0.4933 -0.5702
vn -0.6630 0.5696 -0.4858
vn -0.4459 0.7049 -0.5517
vn -0.0562 0.4162 0.9075
vn -0.0761 0.6798 0.7294
vn -0.7479 0.1820 0.6384
vn -0.8892 0.3176 0.3292
vn -0.4443 0.8922 0.0807
vn -0.0793 0.9869 0.1404
vn -0.0386 0.9982 0.0456
vn 0.2723 0.3091 0.9112
vn -0.0492 0.3283 0.9433
vn 0.1039 0.2297 0.9677
vn -0.7271 0.2772 -0.6280
vn -0.5422 0.2465 -0.8032
vn -0.7787 0.1989 -0.5950
vn -0.2283 0.0973 0.9687
vn -0.3930 -0.1905 0.8995
vn -0.3655 -0.1360 0.9208
vn -0.6272 0.2860 -0.7245
vn 0.3464 0.6673 0.6592
vn 0.0487 0.7550 0.6539
vn -0.8547 0.2832 -0.4350
vn -0.8681 -0.1076 0.4846
vn -0.9346 -0.0557 0.3511
vn -0.7541 -0.2013 0.6250
vn -0.3753 0.8878 0.2660
vn -0.6437 0.7480 0.1616
vn -0.4815 0.7672 0.4237
vn 0.0941 0.9669 0.2373
vn 0.2670 0.8594 0.4361
vn 0.1005 0.9787 0.1787
vn 0.0266 0.9453 0.3251
vn -0.1224 0.7789 0.6151
vn 0.1051 0.9043 0.4136
vn -0.6481 0.7592 -0.0600
vn 0.0488 0.9849 0.1660
vn 0.1696 0.9808 0.0957
vn 0.1845 0.9687 0.1662
vn -0.4397 0.8735 0.2088
vn -0.0762 0.9145 0.3972
vn -0.8383 0.5431 0.0463
vn -0.6116 0.7849 0.0992
vn -0.3624 0.9320 0.0021
vn -0.3670 0.9258 -0.0901
vn -0.1848 0.8906 0.4155
vn -0.1882 0.8194 0.5414
vn -0.1728 0.2078 0.9628
vn -0.1493 0.2097 0.9663
vn -0.4002 0.9151 0.0492
vn -0.0394 0.9012 0.4317
vn -0.1204 0.8248 0.5524
vn -0.5529 0.8038 0.2194
vn -0.3332 0.9253 0.1812
vn -0.2489 0.9364 0.2475
vn -0.1000 0.9481 0.3018
vn -0.0488 0.9466 0.3188
vn 0.0299 0.9537 0.2992
vn -0.8198 0.5517 0.1532
vn -0.6342 0.7680 0.0889
vn -0.6818 0.5963 0.4237
vn -0.3478 0.9241 0.1581
vn -0.0508 0.9799 0.1930
vn -0.0727 0.9666 0.2458
vn -0.2168 0.9226 0.3190
vn -0.3601 0.4586 -0.8124
vn 0.1489 0.9863 0.0702
vn 0.1897 0.9758 -0.1087
vn 0.0909 0.9948 0.0460
vn -0.1931 0.8955 0.4009
vn -0.5207 0.6241 -0.5825
vn 0.0191 0.9997 -0.0151
vn -0.4850 0.1574 -0.8602
vn -0.3958 0.8872 -0.2369
vn 0.0063 0.9477 0.3190
vn 0.1839 0.9807 0.0668
vn 0.1821 0.9828 0.0281
vn 0.0237 0.9976 0.0643
vn 0.2206 0.8522 -0.4744
vn 0.1220 0.7150 -0.6883
vn 0.1076 0.9036 -0.4145
vn 0.9294 0.3580 -0.0892
vn 0.8388 0.5036 -0.2069
vn 0.8928 0.4430 -0.0816
vn 0.7902 0.4365 -0.4301
vn 0.6815 0.3139 -0.6610
vn 0.6864 0.5346 -0.4929
vn -0.4988 0.8631 0.0788
vn -0.5956 0.8012 0.0575
vn 0.5906 0.5511 0.5895
vn 0.5267 0.3329 0.7821
vn 0.7426 0.3841 0.5485
vn 0.4188 0.8143 -0.4018
vn 0.4770 0.8078 -0.3464
vn 0.5990 0.6760 -0.4292
vn 0.0557 0.9632 0.2631
vn -0.0600 0.7539 0.6542
vn -0.6225 0.3029 -0.7216
vn -0.2809 0.7860 0.5507
vn -0.1023 0.3982 0.9115
vn 0.0358 0.4721 0.8808
vn -0.3541 0.7100 0.6087
vn 0.4773 -0.0266 0.8783
vn 0.4366 0.0804 0.8960
vn 0.1282 0.9794 0.1559
vn 0.3744 0.0206 0.9270
vn 0.3731 0.0455 0.9267
vn -0.0614 0.9898 0.1281
vn 0.2345 0.9698 -0.0670
vn 0.0641 0.9977 0.0195
vn -0.0801 0.9958 0.0450
vn 0.2062 0.9783 0.0208
vn -0.0280 0.9949 -0.0965
vn 0.1396 0.9901 0.0098
vn 0.1839 0.9692 -0.1634
vn -0.1826 0.7370 -0.6507
vn 0.0761 0.6858 -0.7238
vn 0.0438 0.5855 -0.8095
vn 0.0674 0.7377 -0.6717
vn 0.2404 0.9130 -0.3294
vn 0.3518 0.7307 -0.5850
vn 0.1005 0.8098 -0.5780
vn 0.3743 0.8551 0.3586
vn 0.7138 0.6429 0.2777
vn 0.8399 0.4768 0.2590
vn 0.2642 0.6729 -0.6909
vn 0.5752 0.3723 -0.7283
vn 0.5047 0.3824 0.7739
vn -0.5134 0.2143 -0.8309
vn -0.2853 0.1751 -0.9423
vn -0.0770 0.3097 -0.9477
vn 0.0143 0.3435 -0.9390
vn -0.0450 0.3505 -0.9355
vn 0.1849 0.3149 -0.9309
vn 0.1589 0.3389 -0.9273
vn 0.2131 0.9300 -0.2994
vn 0.2300 0.9182 -0.3224
vn 0.2788 0.9471 -0.1592
vn 0.0705 0.9645 0.2546
vn 0.2240 0.9006 -0.3725
vn 0.4974 0.7854 -0.3684
vn 0.6675 0.6540 -0.3560
vn 0.8043 0.5784 -0.1361
vn 0.5816 0.7678 -0.2686
vn 0.8458 0.5325 0.0322
vn 0.3404 0.8990 -0.2755
vn 0.0726 0.9626 0.2608
vn 0.3663 0.9189 0.1464
vn 0.0692 0.9670 -0.2452
vn 0.2489 0.9684 -0.0175
vn 0.6657 0.7462 -0.0023
vn 0.8329 0.5528 -0.0230
vn 0.5702 0.5845 -0.5773
vn 0.2176 0.3414 -0.9144
vn 0.2554 0.1315 0.9578
vn 0.4470 0.2853 0.8478
vn 0.6746 0.3579 -0.6455
vn 0.3403 0.8882 0.3087
vn 0.4462 0.3171 -0.8368
vn 0.5962 0.7913 0.1352
vn 0.6417 0.7450 0.1816
vn 0.9286 0.3511 -0.1198
vn 0.4841 0.5164 0.7064
vn -0.3295 0.1938 -0.9240
vn -0.4648 0.5307 -0.7087
vn 0.1702 0.9531 0.2503
vn -0.3385 0.1937 -0.9208
vn -0.0162 0.3983 -0.9171
vn -0.0305 0.9995 0.0068
vn -0.3428 0.1862 -0.9207
vn 0.2188 0.2245 -0.9496
vn -0.3903 0.9198 0.0394
vn -0.3188 0.9360 0.1493
vn 0.6546 0.2726 -0.7051
vn 0.6846 0.2130 -0.6970
vn -0.1391 0.9063 -0.3990
vn -0.0052 0.9664 0.2570
vn -0.4250 0.8060 0.4120
usemtl Base_Brown
s 1
f 2//1 74//2 165//3
f 106//4 118//5 66//6
f 7//7 111//8 44//9
f 36//10 86//11 79//12
f 178//13 175//14 121//15
f 29//16 96//17 93//18
f 221//19 190//20 99//21
f 5//22 164//23 218//24
f 24//25 70//26 17//27
f 14//28 63//29 31//30
f 69//31 29//16 71//32
f 91//33 94//34 54//35
f 18//36 71//32 17//27
f 35//37 56//38 53//39
f 75//40 53//39 56//38
f 9//41 68//42 41//43
f 23//44 64//45 54//35
f 9//41 95//46 68//42
f 73//47 15//48 44//9
f 50//49 18//36 17//27
f 71//32 24//25 17//27
f 23//44 99//21 190//20
f 18//36 51//50 71//32
f 71//32 29//16 41//43
f 10//51 193//52 88//53
f 37//54 88//53 101//55
f 55//56 78//57 165//3
f 75//40 90//58 214//59
f 184//60 103//61 62//62
f 29//16 93//18 41//43
f 20//63 204//64 208//65
f 172//66 6//67 42//68
f 77//69 5//22 218//24
f 55//56 77//69 79//12
f 90//58 75//40 56//38
f 57//70 35//37 43//71
f 42//68 202//72 172//66
f 1//73 84//74 20//63
f 92//75 24//25 68//42
f 92//75 23//44 54//35
f 112//76 4//77 38//78
f 111//8 7//7 70//26
f 101//55 14//28 37//54
f 35//37 53//39 38//78
f 15//48 202//72 42//68
f 21//79 59//80 109//81
f 211//82 80//83 60//84
f 4//77 112//76 69//31
f 107//85 185//86 213//87
f 68//42 95//46 92//75
f 95//46 9//41 48//88
f 49//89 104//90 103//61
f 213//87 110//91 107//85
f 70//26 94//34 111//8
f 102//92 2//1 85//93
f 24//25 94//34 70//26
f 64//45 23//44 190//20
f 9//41 65//94 33//95
f 188//96 108//97 63//29
f 65//94 9//41 41//43
f 4//77 69//31 51//50
f 96//17 29//16 69//31
f 87//98 36//10 186//99
f 96//17 75//40 214//59
f 75//40 96//17 112//76
f 204//64 206//100 208//65
f 164//23 5//22 40//101
f 48//88 33//95 227//102
f 68//42 24//25 71//32
f 91//33 73//47 111//8
f 38//78 75//40 112//76
f 56//38 74//2 90//58
f 15//48 73//47 202//72
f 69//31 71//32 51//50
f 70//26 7//7 50//49
f 37//54 14//28 31//30
f 217//103 185//86 187//104
f 230//105 47//106 34//107
f 43//71 77//69 57//70
f 56//38 35//37 57//70
f 73//47 44//9 111//8
f 17//27 70//26 50//49
f 77//69 165//3 57//70
f 74//2 2//1 90//58
f 74//2 56//38 165//3
f 185//86 217//103 213//87
f 75//40 38//78 53//39
f 41//43 68//42 71//32
f 39//108 81//109 82//110
f 22//111 98//112 65//94
f 214//59 90//58 170//113
f 159//114 102//92 61//115
f 89//116 100//117 61//115
f 41//43 93//18 65//94
f 72//118 91//33 64//45
f 66//6 119//119 223//120
f 197//121 106//4 66//6
f 185//86 107//85 183//122
f 178//13 10//51 194//123
f 21//79 109//81 183//122
f 48//88 99//21 95//46
f 197//121 105//124 108//97
f 72//118 76//125 91//33
f 46//126 101//55 190//20
f 151//127 85//93 78//57
f 24//25 92//75 94//34
f 32//128 113//129 225//130
f 106//4 104//90 118//5
f 215//131 176//132 116//133
f 126//134 149//135 181//136
f 151//127 87//98 89//116
f 3//137 137//138 135//139
f 220//140 184//60 219//141
f 145//142 123//143 127//144
f 11//145 158//146 136//147
f 76//125 73//47 91//33
f 77//69 218//24 79//12
f 78//57 2//1 165//3
f 80//83 67//148 60//84
f 81//109 84//74 82//110
f 81//109 39//108 97//149
f 82//110 211//82 60//84
f 84//74 1//73 211//82
f 85//93 2//1 78//57
f 174//150 202//72 76//125
f 86//11 36//10 87//98
f 89//116 229//151 100//117
f 90//58 2//1 170//113
f 91//33 54//35 64//45
f 92//75 54//35 94//34
f 96//17 214//59 93//18
f 93//18 22//111 65//94
f 94//34 91//33 111//8
f 95//46 23//44 92//75
f 96//17 69//31 112//76
f 97//149 45//152 205//153
f 84//74 205//153 20//63
f 205//153 45//152 204//64
f 2//1 102//92 170//113
f 190//20 72//118 64//45
f 98//112 33//95 65//94
f 99//21 23//44 95//46
f 100//117 34//107 61//115
f 102//92 159//114 98//112
f 103//61 106//4 62//62
f 184//60 220//140 59//80
f 59//80 230//105 109//81
f 219//141 188//96 63//29
f 104//90 106//4 103//61
f 105//124 31//30 108//97
f 106//4 197//121 62//62
f 107//85 49//89 183//122
f 108//97 31//30 63//29
f 109//81 30//154 183//122
f 110//91 32//128 107//85
f 210//155 25//156 208//65
f 222//157 113//129 110//91
f 25//156 20//63 208//65
f 25//156 209//158 58//159
f 113//129 32//128 110//91
f 104//90 32//128 118//5
f 113//129 28//160 225//130
f 196//161 119//119 52//162
f 105//124 223//120 116//133
f 117//163 225//130 28//160
f 223//120 215//131 116//133
f 118//5 201//164 66//6
f 195//165 52//162 117//163
f 52//162 224//166 117//163
f 119//119 115//167 223//120
f 119//119 201//164 52//162
f 178//13 216//168 175//14
f 122//169 175//14 176//132
f 178//13 194//123 216//168
f 177//170 122//169 141//171
f 26//172 150//173 140//174
f 160//175 145//142 124//176
f 145//142 125//177 124//176
f 132//178 150//173 148//179
f 25//156 146//180 20//63
f 166//181 16//182 163//183
f 130//184 173//185 161//186
f 161//186 171//187 130//184
f 172//66 174//150 166//181
f 36//10 45//152 97//149
f 114//188 226//189 192//190
f 160//175 134//191 67//148
f 115//167 199//192 223//120
f 159//114 34//107 47//106
f 26//172 192//190 226//189
f 158//146 154//193 156//194
f 157//195 156//194 83//196
f 124//176 125//177 155//197
f 154//193 114//188 182//198
f 153//199 134//191 128//200
f 182//198 27//201 142//202
f 158//146 114//188 154//193
f 83//196 182//198 143//203
f 215//131 199//192 140//174
f 177//170 140//174 132//178
f 160//175 67//148 80//83
f 157//195 143//203 131//204
f 150//173 191//205 148//179
f 139//206 177//170 132//178
f 146//180 1//73 20//63
f 212//207 123//143 207//208
f 203//209 148//179 191//205
f 203//209 191//205 135//139
f 144//210 127//144 123//143
f 148//179 8//211 139//206
f 203//209 135//139 137//138
f 127//144 125//177 145//142
f 136//147 158//146 156//194
f 158//146 11//145 114//188
f 129//212 160//175 124//176
f 160//175 129//212 128//200
f 128//200 152//213 143//203
f 152//213 129//212 124//176
f 135//139 156//194 149//135
f 182//198 114//188 27//201
f 177//170 121//15 122//169
f 181//136 157//195 131//204
f 156//194 135//139 136//147
f 152//213 124//176 155//197
f 155//197 125//177 181//136
f 149//135 126//134 138//214
f 149//135 3//137 135//139
f 150//173 26//172 226//189
f 186//99 36//10 39//108
f 123//143 147//215 207//208
f 166//181 168//216 6//67
f 86//11 151//127 78//57
f 72//118 180//217 174//150
f 181//136 149//135 157//195
f 67//148 12//218 60//84
f 221//19 227//102 46//126
f 163//183 167//219 166//181
f 142//202 128//200 143//203
f 166//181 10//51 16//182
f 195//165 192//190 196//161
f 45//152 79//12 218//24
f 174//150 193//52 166//181
f 207//208 147//215 146//180
f 184//60 188//96 219//141
f 149//135 156//194 157//195
f 10//51 179//220 16//182
f 121//15 177//170 130//184
f 141//171 215//131 140//174
f 131//204 155//197 181//136
f 145//142 147//215 123//143
f 26//172 140//174 199//192
f 143//203 152//213 131//204
f 3//137 149//135 138//214
f 11//145 150//173 226//189
f 173//185 177//170 139//206
f 13//221 142//202 27//201
f 143//203 157//195 83//196
f 58//159 212//207 207//208
f 16//182 179//220 121//15
f 141//171 176//132 215//131
f 130//184 177//170 173//185
f 167//219 162//222 166//181
f 169//223 161//186 173//185
f 169//223 173//185 139//206
f 171//187 163//183 130//184
f 172//66 202//72 174//150
f 172//66 166//181 6//67
f 165//3 56//38 57//70
f 34//107 159//114 61//115
f 13//221 153//199 142//202
f 216//168 176//132 175//14
f 37//54 10//51 88//53
f 27//201 114//188 192//190
f 16//182 121//15 163//183
f 13//221 195//165 117//163
f 179//220 178//13 121//15
f 175//14 122//169 121//15
f 176//132 141//171 122//169
f 32//128 224//166 118//5
f 130//184 163//183 121//15
f 10//51 178//13 179//220
f 102//92 89//116 61//115
f 174//150 76//125 72//118
f 220//140 189//224 120//225
f 128//200 129//212 152//213
f 134//191 160//175 128//200
f 227//102 189//224 46//126
f 182//198 142//202 143//203
f 128//200 142//202 153//199
f 154//193 182//198 83//196
f 183//122 49//89 103//61
f 184//60 21//79 103//61
f 186//99 185//86 229//151
f 185//86 30//154 229//151
f 87//98 229//151 89//116
f 101//55 180//217 72//118
f 188//96 197//121 108//97
f 188//96 184//60 62//62
f 189//224 219//141 63//29
f 21//79 184//60 59//80
f 190//20 101//55 72//118
f 174//150 180//217 193//52
f 191//205 11//145 136//147
f 137//138 133//226 203//209
f 49//89 32//128 104//90
f 203//209 133//226 200//227
f 193//52 180//217 88//53
f 191//205 136//147 135//139
f 33//95 48//88 9//41
f 46//126 14//28 101//55
f 229//151 87//98 186//99
f 195//165 27//201 192//190
f 195//165 196//161 52//162
f 198//228 216//168 194//123
f 116//133 198//228 105//124
f 224//166 32//128 225//130
f 196//161 192//190 26//172
f 196//161 115//167 119//119
f 55//56 165//3 77//69
f 79//12 45//152 36//10
f 220//140 219//141 189//224
f 197//121 66//6 105//124
f 204//64 164//23 206//100
f 146//180 80//83 1//73
f 10//51 37//54 194//123
f 203//209 200//227 148//179
f 198//228 31//30 105//124
f 197//121 188//96 62//62
f 14//28 46//126 189//224
f 199//192 215//131 223//120
f 8//211 148//179 200//227
f 134//191 153//199 19//229
f 139//206 132//178 148//179
f 132//178 140//174 150//173
f 202//72 73//47 76//125
f 151//127 86//11 87//98
f 43//71 5//22 77//69
f 159//114 227//102 33//95
f 164//23 204//64 45//152
f 12//218 82//110 60//84
f 186//99 39//108 187//104
f 40//101 206//100 164//23
f 140//174 177//170 141//171
f 84//74 211//82 82//110
f 201//164 224//166 52//162
f 47//106 220//140 120//225
f 151//127 89//116 85//93
f 156//194 154//193 83//196
f 80//83 146//180 147//215
f 39//108 217//103 187//104
f 207//208 25//156 58//159
f 20//63 205//153 204//64
f 39//108 82//110 217//103
f 170//113 102//92 98//112
f 12//218 222//157 110//91
f 8//211 169//223 139//206
f 209//158 212//207 58//159
f 222//157 28//160 113//129
f 11//145 226//189 114//188
f 189//224 227//102 120//225
f 21//79 183//122 103//61
f 39//108 36//10 97//149
f 89//116 102//92 85//93
f 34//107 228//230 230//105
f 228//230 30//154 109//81
f 180//217 101//55 88//53
f 66//6 201//164 119//119
f 82//110 12//218 213//87
f 186//99 187//104 185//86
f 220//140 47//106 230//105
f 25//156 207//208 146//180
f 213//87 12//218 110//91
f 159//114 33//95 98//112
f 214//59 22//111 93//18
f 160//175 147//215 145//142
f 82//110 213//87 217//103
f 32//128 49//89 107//85
f 30//154 185//86 183//122
f 31//30 198//228 194//123
f 48//88 221//19 99//21
f 221//19 48//88 227//102
f 222//157 134//191 19//229
f 97//149 84//74 81//109
f 134//191 222//157 67//148
f 199//192 115//167 26//172
f 86//11 55//56 79//12
f 210//155 209//158 25//156
f 47//106 120//225 159//114
f 147//215 160//175 80//83
f 10//51 166//181 193//52
f 80//83 211//82 1//73
f 131//204 152//213 155//197
f 220//140 230//105 59//80
f 221//19 46//126 190//20
f 55//56 86//11 78//57
f 22//111 170//113 98//112
f 216//168 116//133 176//132
f 153//199 13//221 19//229
f 116//133 216//168 198//228
f 14//28 189//224 63//29
f 196//161 26//172 115//167
f 162//222 168//216 166//181
f 222//157 12//218 67//148
f 22//111 214//59 170//113
f 223//120 105//124 66//6
f 224//166 201//164 118//5
f 225//130 117//163 224//166
f 11//145 191//205 150//173
f 195//165 13//221 27//201
f 28//160 13//221 117//163
f 13//221 28//160 19//229
f 45//152 218//24 164//23
f 97//149 205//153 84//74
f 227//102 159//114 120//225
f 228//230 34//107 100//117
f 28//160 222//157 19//229
f 229//151 228//230 100//117
f 230//105 228//230 109//81
f 37//54 31//30 194//123
f 30//154 228//230 229//151
