# Blender v2.79 (sub 0) OBJ File: 'Pyramid Parts.blend'
# www.blender.org
mtllib SnowCap_01.mtl
o Snowcap_01_Icosphere
v 12.793555 2.738577 -32.328442
v 2.218220 2.166373 -33.751823
v 17.921539 -0.624308 -42.089241
v -1.140532 -0.914183 -37.191116
v 5.017082 -0.669204 -32.181259
v 2.267756 -1.339469 -46.891800
v -1.681835 -0.866040 -43.862034
v 13.665445 -1.573526 -46.731544
v -2.137536 2.173239 -41.955025
v 4.759687 2.677766 -47.644512
v 16.153769 3.052487 -43.644218
v 11.315224 6.753414 -36.059719
v 14.885660 6.831450 -39.959618
v 3.236462 5.801597 -44.238628
v 0.454350 -1.009498 -45.116581
v 5.681166 0.799124 -47.974712
v -2.364178 -0.247159 -42.389111
v -2.070876 -0.832545 -41.401379
v 14.786381 6.389265 -38.848701
v 11.786565 1.498730 -31.563744
v 5.751972 7.880571 -39.845177
v -1.120120 2.069208 -38.132046
v -1.702034 2.032542 -44.116882
v -2.442877 0.493420 -43.171741
v 12.237556 0.641901 -31.794716
v 12.400835 5.913013 -44.374359
v 15.187324 6.225751 -40.815159
v 13.784081 7.300453 -39.222759
v -2.268976 0.509178 -39.825062
v 6.025723 6.766988 -37.538010
v 5.931012 6.854147 -45.122887
v 9.551228 8.495356 -38.884136
v -1.239435 3.019334 -41.284977
v 1.807542 4.067860 -38.093712
v 2.246063 -0.766552 -33.501057
v 7.809992 3.102626 -32.286888
v 3.870198 4.885815 -45.532307
v 0.462477 -0.707013 -35.065434
v 9.372302 4.342875 -33.366409
v 6.415997 -0.698093 -31.840607
v -2.302555 1.275910 -41.029182
v 1.437962 -1.129780 -45.920483
v 4.199673 -0.655818 -32.600021
v -0.651361 -0.940396 -44.502174
v 8.725782 1.931607 -31.597782
v 1.337244 4.610097 -43.781429
v 1.162447 4.478791 -40.735847
v -1.422436 2.986811 -42.837334
v 8.064145 8.390903 -39.134243
v -1.969426 -0.916383 -42.792198
v -1.929479 -0.780265 -39.425983
v 12.293579 7.994618 -41.245842
v 1.142715 -0.140732 -34.229103
v -1.551315 1.187377 -44.521889
v 4.402853 1.543452 -32.816547
v 2.059455 0.357432 -33.420738
v 3.039024 -0.131694 -32.961433
v 13.243490 0.201009 -32.492016
v 4.438395 6.982643 -40.278557
v 11.973071 5.288517 -34.832249
v 1.104256 3.307696 -37.134212
v 6.640049 8.496715 -42.151363
v 4.258727 6.702841 -43.695576
v -0.847329 2.059683 -44.840725
v -1.849654 2.166331 -40.293903
v 8.624134 8.400519 -43.316212
v 14.138699 4.662127 -35.794468
v -2.468509 1.226714 -42.630119
v -1.870327 -0.277183 -38.431370
v -2.141235 -0.329061 -43.568432
v -2.432126 0.063150 -41.078705
v 0.216082 2.195621 -45.408020
v 0.128147 -0.111462 -45.161747
v 2.065753 1.401155 -33.469719
v -0.157803 0.240159 -35.600700
v 0.572684 1.516236 -45.575882
v 4.443738 0.195030 -32.442741
v 3.646050 2.084161 -33.156960
v 5.866426 1.583752 -32.453842
v 14.547802 3.077580 -34.325291
v 10.017973 3.694127 -32.669811
v 10.686652 5.394974 -34.560760
v 17.946102 3.017745 -40.290764
v 11.656476 2.921889 -32.081341
v 2.898272 2.579239 -33.850029
v 5.273158 2.400465 -33.130539
v 5.837466 3.576586 -34.080391
v 3.124099 3.899216 -45.671753
v 3.455526 3.401689 -35.195026
v 0.837728 1.337069 -34.579727
v -1.039524 0.786421 -44.884068
v -2.182433 0.955766 -43.783436
v -1.866444 1.608182 -39.274570
v -1.927894 0.297402 -44.129398
v -2.140875 2.026379 -43.239258
v -1.367628 0.296998 -37.433277
v 9.437236 3.081877 -32.040535
v -1.227934 2.650825 -39.265717
v -1.498069 2.571376 -43.768356
v 3.322047 3.945223 -36.140293
v 1.723524 4.092697 -44.795609
v 0.387494 3.046047 -37.173153
v 6.935924 8.610943 -40.750473
v 8.450670 8.849263 -40.439896
v 7.100389 7.828641 -44.432781
v 8.057991 8.950851 -41.256454
v 8.163145 7.980237 -38.041077
v 5.683043 7.395914 -44.119019
v 5.424017 7.366517 -39.038597
v 10.202339 7.917288 -37.429970
v -1.499277 -0.238168 -44.363346
v -0.686764 -0.316312 -36.338646
v 10.875061 8.092561 -38.347927
v 15.846740 4.829260 -41.779728
v 10.773957 7.420617 -44.136749
v 7.620080 7.099218 -45.488277
v 13.324359 7.788166 -40.222313
v 9.543539 8.770174 -41.059349
v 10.000512 8.005371 -43.609917
v 0.558124 4.282715 -41.715935
v 6.813725 2.615354 -47.808060
v 8.288676 3.458899 -47.229473
v 15.105751 -0.647967 -33.446213
v 16.795525 2.365171 -36.342739
v 18.052910 -0.464609 -37.193066
v 18.168114 -0.431376 -39.652676
v 17.442074 -0.539986 -36.346844
v 16.834328 4.140574 -38.568748
v 16.763918 3.252167 -37.021294
v 8.557551 0.094752 -48.242458
v 18.069391 1.474145 -38.664589
v 13.159281 2.613325 -46.011971
v 15.877618 -1.049350 -44.419594
v 15.696367 4.712199 -37.478397
v 17.583225 0.812693 -42.583897
v 16.882336 2.098155 -43.189659
v 16.741064 -0.849022 -43.512135
v 18.112770 -0.496419 -40.858673
v 11.687387 0.814802 -47.334232
v 11.887214 4.048189 -45.731606
v 9.915245 3.968965 -46.607468
v 16.416458 5.132705 -39.612755
v 18.028156 2.986041 -39.527447
v 15.874136 -0.640989 -34.395828
v 15.888655 2.124472 -34.989704
v 13.266279 1.960343 -32.450203
v 14.567165 1.565970 -33.585396
v 14.897251 0.453786 -45.413231
v 18.224182 0.633040 -41.038616
v 14.049265 2.779244 -45.366718
v 4.272004 2.907809 -34.007122
v 17.800465 2.956268 -38.859978
v 15.783924 5.598917 -38.904964
v 17.442268 3.079178 -41.643791
v 18.088799 0.435830 -37.900970
v 17.945652 1.579276 -41.601337
v 18.234015 2.171179 -40.003536
v 17.066422 3.053582 -42.378540
v -0.076876 3.564315 -39.825390
v 16.065083 3.393332 -35.823997
v 10.551286 -1.796273 -47.798588
v 4.737081 -1.829845 -47.810043
v 7.503009 -1.916065 -48.595188
v 6.746920 0.219263 -31.847067
v 3.083826 1.179933 -32.932846
v 3.637448 0.540046 -47.277222
v 6.064415 -1.918517 -48.223930
v 3.485961 -1.618757 -47.363716
v 12.143983 -1.727660 -47.289379
v 0.312196 2.228112 -35.835484
v 8.671474 -1.573844 -48.286751
v 1.918782 -0.526628 -46.455757
v 9.490149 1.192007 -47.979805
v 2.104213 1.513868 -46.212662
v 6.896053 4.751100 -46.909134
v 7.890688 6.050631 -46.219276
v 10.156550 2.172175 -47.698467
v 5.702331 3.758116 -47.292568
v 5.968360 2.679849 -47.799683
v 1.773044 2.393060 -45.881065
v 18.153339 -0.413329 -38.596905
v 16.824053 4.433696 -40.431656
v 6.739082 7.826008 -38.621101
v 5.470353 7.942952 -41.297829
v 7.647283 7.085350 -36.860676
v 7.421350 5.027905 -34.959782
v 8.424387 5.342871 -34.887901
v 5.488607 7.869224 -42.982292
v 1.841142 5.078072 -43.176147
v -0.410329 3.048463 -44.401505
v 15.828552 1.906057 -44.346115
v 13.343960 6.011724 -43.369507
v 2.981544 2.276974 -46.588688
v 5.455213 5.140061 -46.296398
v 13.929605 7.226783 -41.121319
v 12.092731 7.346450 -43.096512
v 7.240571 8.240380 -43.466385
v 6.744494 7.032518 -45.384727
v 10.328387 6.811685 -45.045181
v 14.437464 -1.422019 -45.911278
v 9.704612 8.389262 -42.507870
v 1.289201 0.542877 -45.941265
v 16.574219 0.317198 -43.753754
v 9.644268 0.471797 -31.051910
v 10.464430 2.097593 -31.613129
v 7.421926 -0.656678 -31.545115
v 14.057082 0.908431 -32.929966
v 10.004339 -0.620757 -30.886204
v 12.824898 -0.638057 -32.443474
v 10.998563 -0.626042 -31.379135
v 12.500714 3.563696 -33.010986
v 14.152914 -0.648951 -33.059177
v 9.912849 7.302816 -36.528584
v -0.706456 1.306229 -36.703003
v 9.327717 6.847327 -45.481575
v 6.487332 5.860012 -46.197327
v 9.645302 5.596143 -34.844170
v 6.103553 0.749085 -32.105339
v 3.295907 6.158318 -42.772949
v 2.495800 5.537702 -41.558193
v -0.363393 3.666077 -43.570740
v 11.902748 7.272646 -37.289448
v 8.781281 7.742974 -44.712570
v 11.296364 8.440368 -40.757938
v 12.386807 8.021457 -39.784218
v 14.707898 3.951145 -44.003967
v 0.066895 4.069021 -42.524128
v 3.651281 5.048861 -37.526749
v 5.369883 5.307420 -36.367161
v 3.174264 5.674951 -39.591377
vn -0.4640 0.5850 0.6652
vn -0.5422 0.2262 0.8092
vn -0.3283 0.2051 0.9220
vn -0.0690 0.9967 -0.0414
vn 0.1689 0.9839 -0.0584
vn 0.0663 0.9429 -0.3263
vn -0.7030 -0.4301 -0.5663
vn -0.5685 -0.2970 -0.7671
vn -0.4435 -0.3222 -0.8363
vn -0.2642 0.5695 0.7783
vn -0.2741 0.5988 0.7525
vn -0.3036 0.3534 0.8848
vn -0.1663 0.4666 -0.8687
vn -0.0017 0.4419 -0.8970
vn 0.0273 0.2856 -0.9579
vn -0.9739 0.0558 0.2197
vn -0.8796 0.0919 0.4667
vn -0.8843 0.3545 0.3039
vn -0.5462 0.7806 -0.3038
vn -0.4974 0.6210 -0.6058
vn -0.6686 0.6294 -0.3961
vn -0.3083 0.0798 0.9479
vn -0.2630 0.1359 0.9552
vn -0.2755 0.2199 0.9358
vn -0.9708 -0.0591 -0.2325
vn -0.8630 -0.3379 -0.3755
vn -0.9461 -0.3194 -0.0532
vn -0.5204 0.7255 -0.4502
vn -0.5395 0.7790 -0.3193
vn -0.4003 0.6888 -0.6043
vn -0.9321 -0.1411 0.3337
vn -0.9846 -0.1550 0.0808
vn -0.4802 -0.0813 -0.8733
vn -0.7581 -0.1300 -0.6390
vn -0.6604 0.0870 -0.7458
vn -0.9096 -0.4135 0.0403
vn -0.5305 -0.1897 0.8261
vn -0.5628 -0.0376 0.8257
vn -0.6816 -0.0757 0.7278
vn -0.7808 0.0289 0.6241
vn -0.8627 0.5020 0.0604
vn -0.9838 0.1664 -0.0662
vn -0.9658 0.2238 0.1307
vn -0.7270 0.3860 -0.5678
vn -0.5325 0.3318 -0.7786
vn -0.8725 0.4274 -0.2369
vn -0.4376 -0.1992 -0.8768
vn -0.5299 -0.1680 -0.8312
vn -0.8646 -0.4855 -0.1290
vn -0.9384 -0.2967 0.1772
vn -0.3452 0.2893 -0.8928
vn -0.5001 0.2940 -0.8145
vn -0.4592 0.4646 -0.7572
vn -0.4536 0.5519 -0.6997
vn -0.4452 0.5937 -0.6703
vn -0.1734 0.3530 0.9194
vn -0.1914 0.5516 0.8119
vn -0.7105 0.2278 0.6657
vn -0.8161 0.2881 0.5009
vn -0.5352 0.8436 0.0443
vn -0.3210 0.9354 0.1481
vn -0.3081 0.9402 -0.1450
vn 0.3083 0.1717 0.9356
vn -0.0778 0.1924 0.9782
vn 0.0641 0.0652 0.9958
vn -0.6245 0.0802 -0.7769
vn -0.5332 0.1128 -0.8384
vn -0.6897 -0.0433 -0.7227
vn -0.2967 0.1026 0.9494
vn -0.3993 -0.1224 0.9086
vn -0.3900 -0.0887 0.9165
vn -0.5073 0.0101 -0.8617
vn 0.4610 0.4462 0.7670
vn 0.1661 0.5486 0.8194
vn -0.8784 0.0890 -0.4695
vn -0.8096 -0.1103 0.5765
vn -0.8628 -0.1339 0.4874
vn -0.7284 -0.1571 0.6668
vn -0.4727 0.8471 0.2429
vn -0.6249 0.7604 0.1768
vn -0.5208 0.7681 0.3724
vn 0.3542 0.7040 0.6155
vn 0.5672 0.5185 0.6398
vn 0.3423 0.7055 0.6206
vn -0.1904 0.8725 0.4500
vn -0.2733 0.7476 0.6052
vn -0.0435 0.7802 0.6239
vn -0.6816 0.7262 -0.0892
vn -0.1893 0.9273 0.3229
vn -0.0337 0.9820 0.1856
vn 0.0854 0.8849 0.4579
vn -0.4870 0.8053 0.3380
vn -0.2708 0.7762 0.5694
vn -0.8414 0.5114 0.1745
vn -0.6436 0.7574 0.1096
vn -0.4678 0.8525 -0.2334
vn -0.4148 0.7895 -0.4523
vn -0.3368 0.7171 0.6101
vn -0.3023 0.7087 0.6374
vn -0.2724 0.1087 0.9560
vn -0.2535 0.0982 0.9623
vn -0.5358 0.8443 -0.0025
vn -0.1089 0.7337 0.6706
vn -0.2244 0.7138 0.6634
vn -0.6063 0.7508 0.2621
vn -0.5334 0.8243 0.1896
vn -0.4972 0.8028 0.3291
vn -0.0959 0.7533 0.6506
vn 0.0416 0.7171 0.6957
vn 0.0816 0.7298 0.6788
vn -0.7812 0.4826 0.3959
vn -0.7080 0.6564 0.2603
vn -0.6498 0.5722 0.5003
vn -0.5134 0.8344 0.2004
vn -0.3851 0.8586 0.3383
vn -0.3433 0.8033 0.4866
vn -0.4518 0.7548 0.4755
vn -0.4092 0.3046 -0.8601
vn 0.2680 0.8859 -0.3786
vn 0.1206 0.8156 -0.5658
vn -0.1772 0.9257 -0.3340
vn -0.3365 0.8471 0.4114
vn -0.3685 0.5516 -0.7483
vn -0.1992 0.8611 -0.4678
vn -0.4063 -0.0098 -0.9137
vn -0.5224 0.7750 -0.3555
vn -0.2149 0.7803 0.5873
vn 0.0456 0.9615 0.2709
vn 0.2552 0.9221 0.2909
vn 0.2937 0.9335 0.2054
vn 0.2514 0.5735 -0.7797
vn 0.0772 0.4874 -0.8697
vn -0.0370 0.6847 -0.7279
vn 0.9987 -0.0495 0.0023
vn 0.9845 0.0130 -0.1750
vn 0.9983 0.0137 0.0567
vn 0.8997 -0.0132 -0.4362
vn 0.7490 -0.0338 -0.6616
vn 0.8365 0.0865 -0.5412
vn -0.5936 0.8016 0.0708
vn -0.6021 0.7957 -0.0660
vn 0.7052 0.2652 0.6575
vn 0.6297 0.1057 0.7696
vn 0.7860 0.1531 0.5989
vn 0.6410 0.4469 -0.6239
vn 0.7650 0.4442 -0.4663
vn 0.7745 0.2018 -0.5994
vn 0.4744 0.6940 0.5415
vn -0.0370 0.5673 0.8227
vn -0.4492 0.1401 -0.8824
vn -0.4041 0.6991 0.5898
vn -0.1731 0.3077 0.9356
vn 0.0498 0.3591 0.9320
vn -0.4326 0.7201 0.5424
vn 0.4530 -0.1549 0.8779
vn 0.4799 -0.0803 0.8736
vn 0.3876 0.8018 0.4548
vn 0.4662 -0.1847 0.8652
vn 0.4956 -0.1230 0.8598
vn 0.4575 0.8215 0.3402
vn 0.4664 0.7539 -0.4627
vn 0.3605 0.8957 -0.2603
vn 0.4211 0.9069 0.0118
vn 0.2218 0.9433 -0.2470
vn 0.5500 0.7616 -0.3426
vn 0.2483 0.9672 -0.0533
vn 0.3914 0.7409 -0.5457
vn -0.2109 0.5553 -0.8045
vn 0.1449 0.4284 -0.8918
vn 0.2514 0.3238 -0.9121
vn 0.2741 0.4582 -0.8455
vn 0.4987 0.5447 -0.6742
vn 0.5207 0.3729 -0.7679
vn 0.3882 0.4658 -0.7951
vn 0.6596 0.5199 0.5428
vn 0.8273 0.2706 0.4923
vn 0.9074 0.1664 0.3858
vn 0.4693 0.3641 -0.8045
vn 0.6272 0.1229 -0.7690
vn 0.5965 0.1753 0.7832
vn -0.4154 0.0945 -0.9047
vn -0.2159 0.0679 -0.9740
vn -0.0438 0.1007 -0.9939
vn 0.1261 0.1184 -0.9849
vn 0.0255 0.2393 -0.9706
vn 0.2827 0.0446 -0.9581
vn 0.2495 0.0427 -0.9674
vn 0.6582 0.6113 -0.4394
vn 0.5474 0.5578 -0.6239
vn 0.5815 0.6044 -0.5445
vn 0.5911 0.6748 0.4419
vn 0.3808 0.5760 -0.7233
vn 0.8147 0.4513 -0.3640
vn 0.9132 0.1825 -0.3642
vn 0.9881 0.1494 -0.0365
vn 0.8781 0.4418 -0.1834
vn 0.9637 0.1491 0.2214
vn 0.7605 0.6107 -0.2206
vn 0.6653 0.6665 0.3362
vn 0.7430 0.5864 0.3226
vn 0.6823 0.6477 -0.3389
vn 0.7683 0.6381 0.0500
vn 0.9046 0.4078 0.1238
vn 0.9711 0.1330 0.1982
vn 0.6542 0.1854 -0.7332
vn 0.3975 0.1455 -0.9059
vn 0.4173 -0.0723 0.9059
vn 0.5923 0.0833 0.8014
vn 0.7339 0.0248 -0.6788
vn 0.7735 0.0958 0.6265
vn 0.5217 0.1176 -0.8450
vn 0.7938 0.4635 0.3936
vn 0.8550 0.3916 0.3399
vn 0.9898 -0.1117 -0.0881
vn 0.6636 0.2615 0.7009
vn -0.3363 0.0613 -0.9398
vn -0.3758 0.3624 -0.8529
vn 0.2680 0.7507 0.6039
vn -0.2581 0.1145 -0.9593
vn -0.0479 0.2658 -0.9628
vn 0.6397 0.7679 0.0333
vn -0.3026 0.0732 -0.9503
vn 0.3196 0.0441 -0.9465
vn -0.5546 0.8260 -0.1008
vn -0.5312 0.8411 0.1017
vn 0.7243 -0.0337 -0.6886
vn 0.7220 0.0025 -0.6918
vn -0.2463 0.6947 -0.6758
vn 0.5426 0.7208 0.4311
vn -0.5173 0.7318 0.4436
usemtl Snow
s 1
f 2//1 74//2 165//3
f 106//4 118//5 66//6
f 7//7 111//8 44//9
f 36//10 86//11 79//12
f 178//13 175//14 121//15
f 29//16 96//17 93//18
f 221//19 190//20 99//21
f 5//22 164//23 218//24
f 24//25 70//26 17//27
f 14//28 63//29 31//30
f 69//31 29//16 71//32
f 91//33 94//34 54//35
f 18//36 71//32 17//27
f 35//37 56//38 53//39
f 75//40 53//39 56//38
f 9//41 68//42 41//43
f 23//44 64//45 54//35
f 9//41 95//46 68//42
f 73//47 15//48 44//9
f 50//49 18//36 17//27
f 71//32 24//25 17//27
f 23//44 99//21 190//20
f 18//36 51//50 71//32
f 71//32 29//16 41//43
f 10//51 193//52 88//53
f 37//54 88//53 101//55
f 55//56 78//57 165//3
f 75//40 90//58 214//59
f 184//60 103//61 62//62
f 29//16 93//18 41//43
f 20//63 204//64 208//65
f 172//66 6//67 42//68
f 77//69 5//22 218//24
f 55//56 77//69 79//12
f 90//58 75//40 56//38
f 57//70 35//37 43//71
f 42//68 202//72 172//66
f 1//73 84//74 20//63
f 92//75 24//25 68//42
f 92//75 23//44 54//35
f 112//76 4//77 38//78
f 111//8 7//7 70//26
f 101//55 14//28 37//54
f 35//37 53//39 38//78
f 15//48 202//72 42//68
f 21//79 59//80 109//81
f 211//82 80//83 60//84
f 4//77 112//76 69//31
f 107//85 185//86 213//87
f 68//42 95//46 92//75
f 95//46 9//41 48//88
f 49//89 104//90 103//61
f 213//87 110//91 107//85
f 70//26 94//34 111//8
f 102//92 2//1 85//93
f 24//25 94//34 70//26
f 64//45 23//44 190//20
f 9//41 65//94 33//95
f 188//96 108//97 63//29
f 65//94 9//41 41//43
f 4//77 69//31 51//50
f 96//17 29//16 69//31
f 87//98 36//10 186//99
f 96//17 75//40 214//59
f 75//40 96//17 112//76
f 204//64 206//100 208//65
f 164//23 5//22 40//101
f 48//88 33//95 227//102
f 68//42 24//25 71//32
f 91//33 73//47 111//8
f 38//78 75//40 112//76
f 56//38 74//2 90//58
f 15//48 73//47 202//72
f 69//31 71//32 51//50
f 70//26 7//7 50//49
f 37//54 14//28 31//30
f 217//103 185//86 187//104
f 230//105 47//106 34//107
f 43//71 77//69 57//70
f 56//38 35//37 57//70
f 73//47 44//9 111//8
f 17//27 70//26 50//49
f 77//69 165//3 57//70
f 74//2 2//1 90//58
f 74//2 56//38 165//3
f 185//86 217//103 213//87
f 75//40 38//78 53//39
f 41//43 68//42 71//32
f 39//108 81//109 82//110
f 22//111 98//112 65//94
f 214//59 90//58 170//113
f 159//114 102//92 61//115
f 89//116 100//117 61//115
f 41//43 93//18 65//94
f 72//118 91//33 64//45
f 66//6 119//119 223//120
f 197//121 106//4 66//6
f 185//86 107//85 183//122
f 178//13 10//51 194//123
f 21//79 109//81 183//122
f 48//88 99//21 95//46
f 197//121 105//124 108//97
f 72//118 76//125 91//33
f 46//126 101//55 190//20
f 151//127 85//93 78//57
f 24//25 92//75 94//34
f 32//128 113//129 225//130
f 106//4 104//90 118//5
f 215//131 176//132 116//133
f 126//134 149//135 181//136
f 151//127 87//98 89//116
f 3//137 137//138 135//139
f 220//140 184//60 219//141
f 145//142 123//143 127//144
f 11//145 158//146 136//147
f 76//125 73//47 91//33
f 77//69 218//24 79//12
f 78//57 2//1 165//3
f 80//83 67//148 60//84
f 81//109 84//74 82//110
f 81//109 39//108 97//149
f 82//110 211//82 60//84
f 84//74 1//73 211//82
f 85//93 2//1 78//57
f 174//150 202//72 76//125
f 86//11 36//10 87//98
f 89//116 229//151 100//117
f 90//58 2//1 170//113
f 91//33 54//35 64//45
f 92//75 54//35 94//34
f 96//17 214//59 93//18
f 93//18 22//111 65//94
f 94//34 91//33 111//8
f 95//46 23//44 92//75
f 96//17 69//31 112//76
f 97//149 45//152 205//153
f 84//74 205//153 20//63
f 205//153 45//152 204//64
f 2//1 102//92 170//113
f 190//20 72//118 64//45
f 98//112 33//95 65//94
f 99//21 23//44 95//46
f 100//117 34//107 61//115
f 102//92 159//114 98//112
f 103//61 106//4 62//62
f 184//60 220//140 59//80
f 59//80 230//105 109//81
f 219//141 188//96 63//29
f 104//90 106//4 103//61
f 105//124 31//30 108//97
f 106//4 197//121 62//62
f 107//85 49//89 183//122
f 108//97 31//30 63//29
f 109//81 30//154 183//122
f 110//91 32//128 107//85
f 210//155 25//156 208//65
f 222//157 113//129 110//91
f 25//156 20//63 208//65
f 25//156 209//158 58//159
f 113//129 32//128 110//91
f 104//90 32//128 118//5
f 113//129 28//160 225//130
f 196//161 119//119 52//162
f 105//124 223//120 116//133
f 117//163 225//130 28//160
f 223//120 215//131 116//133
f 118//5 201//164 66//6
f 195//165 52//162 117//163
f 52//162 224//166 117//163
f 119//119 115//167 223//120
f 119//119 201//164 52//162
f 178//13 216//168 175//14
f 122//169 175//14 176//132
f 178//13 194//123 216//168
f 177//170 122//169 141//171
f 26//172 150//173 140//174
f 160//175 145//142 124//176
f 145//142 125//177 124//176
f 132//178 150//173 148//179
f 25//156 146//180 20//63
f 166//181 16//182 163//183
f 130//184 173//185 161//186
f 161//186 171//187 130//184
f 172//66 174//150 166//181
f 36//10 45//152 97//149
f 114//188 226//189 192//190
f 160//175 134//191 67//148
f 115//167 199//192 223//120
f 159//114 34//107 47//106
f 26//172 192//190 226//189
f 158//146 154//193 156//194
f 157//195 156//194 83//196
f 124//176 125//177 155//197
f 154//193 114//188 182//198
f 153//199 134//191 128//200
f 182//198 27//201 142//202
f 158//146 114//188 154//193
f 83//196 182//198 143//203
f 215//131 199//192 140//174
f 177//170 140//174 132//178
f 160//175 67//148 80//83
f 157//195 143//203 131//204
f 150//173 191//205 148//179
f 139//206 177//170 132//178
f 146//180 1//73 20//63
f 212//207 123//143 207//208
f 203//209 148//179 191//205
f 203//209 191//205 135//139
f 144//210 127//144 123//143
f 148//179 8//211 139//206
f 203//209 135//139 137//138
f 127//144 125//177 145//142
f 136//147 158//146 156//194
f 158//146 11//145 114//188
f 129//212 160//175 124//176
f 160//175 129//212 128//200
f 128//200 152//213 143//203
f 152//213 129//212 124//176
f 135//139 156//194 149//135
f 182//198 114//188 27//201
f 177//170 121//15 122//169
f 181//136 157//195 131//204
f 156//194 135//139 136//147
f 152//213 124//176 155//197
f 155//197 125//177 181//136
f 149//135 126//134 138//214
f 149//135 3//137 135//139
f 150//173 26//172 226//189
f 186//99 36//10 39//108
f 123//143 147//215 207//208
f 166//181 168//216 6//67
f 86//11 151//127 78//57
f 72//118 180//217 174//150
f 181//136 149//135 157//195
f 67//148 12//218 60//84
f 221//19 227//102 46//126
f 163//183 167//219 166//181
f 142//202 128//200 143//203
f 166//181 10//51 16//182
f 195//165 192//190 196//161
f 45//152 79//12 218//24
f 174//150 193//52 166//181
f 207//208 147//215 146//180
f 184//60 188//96 219//141
f 149//135 156//194 157//195
f 10//51 179//220 16//182
f 121//15 177//170 130//184
f 141//171 215//131 140//174
f 131//204 155//197 181//136
f 145//142 147//215 123//143
f 26//172 140//174 199//192
f 143//203 152//213 131//204
f 3//137 149//135 138//214
f 11//145 150//173 226//189
f 173//185 177//170 139//206
f 13//221 142//202 27//201
f 143//203 157//195 83//196
f 58//159 212//207 207//208
f 16//182 179//220 121//15
f 141//171 176//132 215//131
f 130//184 177//170 173//185
f 167//219 162//222 166//181
f 169//223 161//186 173//185
f 169//223 173//185 139//206
f 171//187 163//183 130//184
f 172//66 202//72 174//150
f 172//66 166//181 6//67
f 165//3 56//38 57//70
f 34//107 159//114 61//115
f 13//221 153//199 142//202
f 216//168 176//132 175//14
f 37//54 10//51 88//53
f 27//201 114//188 192//190
f 16//182 121//15 163//183
f 13//221 195//165 117//163
f 179//220 178//13 121//15
f 175//14 122//169 121//15
f 176//132 141//171 122//169
f 32//128 224//166 118//5
f 130//184 163//183 121//15
f 10//51 178//13 179//220
f 102//92 89//116 61//115
f 174//150 76//125 72//118
f 220//140 189//224 120//225
f 128//200 129//212 152//213
f 134//191 160//175 128//200
f 227//102 189//224 46//126
f 182//198 142//202 143//203
f 128//200 142//202 153//199
f 154//193 182//198 83//196
f 183//122 49//89 103//61
f 184//60 21//79 103//61
f 186//99 185//86 229//151
f 185//86 30//154 229//151
f 87//98 229//151 89//116
f 101//55 180//217 72//118
f 188//96 197//121 108//97
f 188//96 184//60 62//62
f 189//224 219//141 63//29
f 21//79 184//60 59//80
f 190//20 101//55 72//118
f 174//150 180//217 193//52
f 191//205 11//145 136//147
f 137//138 133//226 203//209
f 49//89 32//128 104//90
f 203//209 133//226 200//227
f 193//52 180//217 88//53
f 191//205 136//147 135//139
f 33//95 48//88 9//41
f 46//126 14//28 101//55
f 229//151 87//98 186//99
f 195//165 27//201 192//190
f 195//165 196//161 52//162
f 198//228 216//168 194//123
f 116//133 198//228 105//124
f 224//166 32//128 225//130
f 196//161 192//190 26//172
f 196//161 115//167 119//119
f 55//56 165//3 77//69
f 79//12 45//152 36//10
f 220//140 219//141 189//224
f 197//121 66//6 105//124
f 204//64 164//23 206//100
f 146//180 80//83 1//73
f 10//51 37//54 194//123
f 203//209 200//227 148//179
f 198//228 31//30 105//124
f 197//121 188//96 62//62
f 14//28 46//126 189//224
f 199//192 215//131 223//120
f 8//211 148//179 200//227
f 134//191 153//199 19//229
f 139//206 132//178 148//179
f 132//178 140//174 150//173
f 202//72 73//47 76//125
f 151//127 86//11 87//98
f 43//71 5//22 77//69
f 159//114 227//102 33//95
f 164//23 204//64 45//152
f 12//218 82//110 60//84
f 186//99 39//108 187//104
f 40//101 206//100 164//23
f 140//174 177//170 141//171
f 84//74 211//82 82//110
f 201//164 224//166 52//162
f 47//106 220//140 120//225
f 151//127 89//116 85//93
f 156//194 154//193 83//196
f 80//83 146//180 147//215
f 39//108 217//103 187//104
f 207//208 25//156 58//159
f 20//63 205//153 204//64
f 39//108 82//110 217//103
f 170//113 102//92 98//112
f 12//218 222//157 110//91
f 8//211 169//223 139//206
f 209//158 212//207 58//159
f 222//157 28//160 113//129
f 11//145 226//189 114//188
f 189//224 227//102 120//225
f 21//79 183//122 103//61
f 39//108 36//10 97//149
f 89//116 102//92 85//93
f 34//107 228//230 230//105
f 228//230 30//154 109//81
f 180//217 101//55 88//53
f 66//6 201//164 119//119
f 82//110 12//218 213//87
f 186//99 187//104 185//86
f 220//140 47//106 230//105
f 25//156 207//208 146//180
f 213//87 12//218 110//91
f 159//114 33//95 98//112
f 214//59 22//111 93//18
f 160//175 147//215 145//142
f 82//110 213//87 217//103
f 32//128 49//89 107//85
f 30//154 185//86 183//122
f 31//30 198//228 194//123
f 48//88 221//19 99//21
f 221//19 48//88 227//102
f 222//157 134//191 19//229
f 97//149 84//74 81//109
f 134//191 222//157 67//148
f 199//192 115//167 26//172
f 86//11 55//56 79//12
f 210//155 209//158 25//156
f 47//106 120//225 159//114
f 147//215 160//175 80//83
f 10//51 166//181 193//52
f 80//83 211//82 1//73
f 131//204 152//213 155//197
f 220//140 230//105 59//80
f 221//19 46//126 190//20
f 55//56 86//11 78//57
f 22//111 170//113 98//112
f 216//168 116//133 176//132
f 153//199 13//221 19//229
f 116//133 216//168 198//228
f 14//28 189//224 63//29
f 196//161 26//172 115//167
f 162//222 168//216 166//181
f 222//157 12//218 67//148
f 22//111 214//59 170//113
f 223//120 105//124 66//6
f 224//166 201//164 118//5
f 225//130 117//163 224//166
f 11//145 191//205 150//173
f 195//165 13//221 27//201
f 28//160 13//221 117//163
f 13//221 28//160 19//229
f 45//152 218//24 164//23
f 97//149 205//153 84//74
f 227//102 159//114 120//225
f 228//230 34//107 100//117
f 28//160 222//157 19//229
f 229//151 228//230 100//117
f 230//105 228//230 109//81
f 37//54 31//30 194//123
f 30//154 228//230 229//151
