# Blender v2.79 (sub 0) OBJ File: 'Pyramid Parts.blend'
# www.blender.org
mtllib SnowCap_02.mtl
o Snowcap_02_Icosphere.001
v -12.176104 -0.243635 -40.100742
v 0.592023 -0.399957 -34.977505
v -1.645049 -0.371781 -31.458241
v -0.428896 1.107452 -32.802124
v -3.148962 -0.419339 -31.573902
v -6.912746 1.378786 -31.856606
v -0.372243 0.030168 -32.408112
v -0.478607 -0.343976 -32.745129
v -1.123224 0.186109 -31.414856
v -4.500273 0.599367 -43.772095
v -9.352723 3.519690 -40.019440
v -4.062268 3.452725 -38.839836
v -7.135488 3.484679 -33.905296
v -6.113427 4.008165 -39.444508
v -1.665957 2.149587 -36.694363
v 0.115241 -0.312176 -38.935436
v -2.595396 1.552226 -41.786190
v 0.201100 0.404314 -33.484261
v -4.236395 -0.487202 -31.521278
v -0.739707 -0.261814 -40.454159
v -3.040807 0.636403 -42.958229
v -2.431043 1.877408 -32.253609
v -2.685992 2.486180 -34.304771
v 0.206196 -0.318784 -33.929386
v -8.679669 3.900818 -39.149902
v 0.554710 -0.288806 -37.363800
v 0.212306 0.164204 -39.038109
v -6.225153 3.450147 -40.785271
v -3.058750 1.090978 -31.277355
v -3.964850 0.318797 -31.450275
v 0.106536 0.711698 -39.200455
v 0.709232 0.062120 -36.548080
v -1.258054 0.804197 -40.571712
v -5.381556 1.410646 -43.652031
v -3.307849 1.611362 -42.395035
v -0.105897 1.149559 -39.036232
v -1.436897 1.312319 -40.108047
v 0.502388 0.701475 -37.772835
v -2.173462 0.509925 -31.123636
v 0.239684 0.919264 -34.254616
v -1.769962 0.074845 -31.221535
v -0.897323 0.924754 -31.785553
v -0.221808 1.433075 -34.472401
v -1.883276 1.189965 -31.381836
v -4.497661 2.261643 -32.526936
v -0.301642 1.538302 -36.098637
v -6.032406 4.374222 -36.722645
v -5.079052 3.955542 -38.481640
v -5.537098 3.653737 -34.338310
v -4.117333 3.769009 -37.128586
v -9.025080 3.635439 -36.522110
v -9.164210 1.872260 -34.058895
v -11.131258 -0.139871 -41.963615
v -10.299417 -0.172332 -42.992859
v -10.423843 2.406967 -41.101822
v -9.575671 2.833321 -41.049767
v -12.022793 -0.372383 -38.615314
v -11.808483 -0.182010 -40.878452
v -9.980633 1.072254 -33.898468
v -7.484463 -0.254665 -43.915874
v -8.705824 1.614771 -43.048256
v -11.985403 0.621258 -40.735508
v -11.106539 1.376893 -36.386395
v -11.329502 1.458248 -41.575661
v -10.174978 -0.808358 -33.979706
v -6.855083 -0.824535 -31.719614
v -8.740849 -0.866081 -32.342751
v -1.625710 -0.274721 -41.529179
v -7.774420 -0.867262 -31.997435
v -5.701685 -0.685253 -31.398117
v -10.888254 -0.775296 -34.888168
v 0.316144 1.130833 -36.851151
v -9.289383 -0.701178 -32.971992
v -5.059810 -0.585593 -31.313423
v -4.762935 1.130061 -31.686666
v -7.949081 2.819299 -33.616924
v -7.807256 1.352393 -32.369255
v -11.693958 1.541688 -40.573547
v -4.519123 3.908640 -36.245625
v -3.614258 2.529642 -40.322758
v -5.503582 3.971616 -35.034584
v -11.832027 0.790593 -37.687042
v -10.066152 2.852842 -36.940556
v -9.725671 3.408419 -39.557423
v -6.883158 3.889831 -34.709404
v -11.591446 -0.687466 -36.009613
v -7.911373 3.951183 -35.480011
v -12.190533 0.396847 -39.592735
v -4.441333 1.442189 -43.308586
v -6.117207 0.740222 -43.833229
v -3.361547 -0.242367 -43.469204
v -5.921953 -0.254652 -43.704605
v -5.441776 3.576130 -40.176003
v 0.650346 0.432463 -35.576637
v -8.696489 3.364607 -34.987110
v -7.098290 2.793145 -33.178768
v -4.964849 2.716186 -41.424625
v -0.749146 0.131650 -40.413586
v -4.184527 2.733208 -33.109673
v -7.629931 4.186668 -38.042271
v -11.861559 1.429108 -38.673058
v -1.447055 1.611554 -32.367802
v -1.479513 1.867665 -38.177593
v -2.776032 2.791727 -35.812992
vn 0.0718 0.9965 0.0418
vn -0.1598 0.9859 -0.0496
vn -0.2902 0.9272 0.2365
vn 0.2767 -0.5149 0.8113
vn 0.1373 -0.2509 0.9582
vn -0.0769 -0.2760 0.9581
vn 0.5863 0.6720 -0.4524
vn 0.5223 0.7753 -0.3551
vn 0.6771 0.5010 -0.5390
vn -0.2414 0.3973 0.8854
vn -0.4812 0.6185 0.6211
vn -0.5106 0.4006 0.7607
vn 0.9252 0.0896 0.3686
vn 0.9616 0.2602 0.0871
vn 0.8426 0.5018 0.1952
vn 0.7984 0.0502 -0.6000
vn 0.7501 0.1418 -0.6460
vn 0.7594 0.2059 -0.6171
vn 0.1881 0.8566 0.4804
vn 0.1171 0.8768 0.4663
vn -0.1793 0.8126 0.5545
vn 0.9826 -0.0148 0.1848
vn 0.7995 -0.2726 0.5353
vn 0.8949 -0.2604 -0.3623
vn 0.9176 -0.0871 -0.3879
vn 0.9824 -0.0563 -0.1783
vn 0.9977 -0.0495 -0.0470
vn 0.7084 0.6103 0.3544
vn 0.6448 0.4429 0.6229
vn 0.2522 0.5759 0.7776
vn -0.1021 0.3940 0.9134
vn 0.0448 0.0074 0.9990
vn 0.6698 -0.5929 0.4469
vn 0.9361 0.0204 0.3512
vn -0.0985 0.3986 0.9118
vn -0.0089 0.7115 0.7026
vn 0.6073 0.7274 -0.3193
vn 0.8350 0.2976 -0.4628
vn 0.9371 0.3076 -0.1651
vn 0.3796 0.9163 0.1271
vn 0.1910 0.9362 0.2949
vn 0.2372 0.1332 -0.9622
vn 0.6179 0.3374 -0.7102
vn 0.4996 0.1452 -0.8540
vn 0.1841 -0.1476 0.9717
vn -0.0786 -0.0127 0.9968
vn -0.0637 0.1621 0.9847
vn 0.0753 0.5758 -0.8141
vn 0.3184 0.6505 -0.6895
vn 0.5750 -0.1591 0.8025
vn 0.2926 0.9403 -0.1736
vn 0.4687 0.8480 -0.2471
vn 0.3044 0.8726 -0.3820
vn 0.4036 0.8477 0.3443
vn 0.0923 0.9581 -0.2709
vn 0.4588 0.8306 -0.3155
vn 0.3030 0.8394 -0.4511
vn 0.5398 0.8340 0.1140
vn 0.4047 0.8972 0.1767
vn 0.4848 0.8741 -0.0286
vn 0.5659 0.8158 0.1190
vn 0.7295 0.6829 -0.0371
vn -0.0793 0.9352 0.3450
vn 0.4480 0.8931 -0.0398
vn 0.1953 0.8594 0.4725
vn -0.5620 0.7133 0.4187
vn -0.9874 -0.0211 -0.1565
vn -0.9884 -0.0249 0.1500
vn -0.9899 0.1415 0.0045
vn -0.2508 0.5716 -0.7812
vn -0.1509 0.2118 -0.9656
vn -0.5066 0.2720 -0.8181
vn 0.0509 0.8724 -0.4860
vn 0.4417 0.7175 -0.5386
vn 0.4777 0.8784 -0.0081
vn 0.4629 0.8716 -0.1609
vn -0.3126 0.8884 -0.3361
vn -0.2453 0.9591 -0.1410
vn -0.5056 0.8499 0.1485
vn -0.1889 0.6811 0.7073
vn -0.1798 0.1572 0.9710
vn -0.5288 0.1602 0.8335
vn -0.7701 0.0521 0.6357
vn -0.7476 0.0544 0.6619
vn -0.7096 0.4058 0.5760
vn -0.5551 0.8287 -0.0717
vn -0.8632 0.4947 0.1008
vn -0.6813 0.7035 0.2024
vn -0.6891 0.4535 -0.5652
vn -0.9280 0.1347 -0.3474
vn -0.8139 0.5516 -0.1825
vn -0.4896 0.7574 -0.4320
vn -0.0366 0.1666 -0.9853
vn 0.0844 -0.1321 -0.9876
vn -0.9382 0.2296 0.2588
vn -0.8951 0.2176 0.3892
vn -0.6112 0.5846 0.5335
vn -0.7966 0.0295 -0.6038
vn -0.8667 -0.1041 -0.4878
vn -0.8242 0.4214 0.3782
vn -0.2727 0.5814 0.7666
vn -0.2893 0.2882 0.9128
vn -0.8212 0.1027 0.5613
vn -0.2571 0.8063 -0.5326
usemtl Snow
s 1
f 47//1 100//2 87//3
f 3//4 41//5 5//6
f 17//7 37//8 33//9
f 6//10 76//11 77//12
f 18//13 94//14 40//15
f 20//16 68//17 98//18
f 99//19 49//20 13//21
f 2//22 18//13 7//23
f 16//24 27//25 26//26
f 32//27 26//26 27//25
f 4//28 42//29 18//13
f 44//30 29//31 39//32
f 3//4 8//33 7//23
f 8//33 24//34 7//23
f 6//10 75//35 45//36
f 33//9 36//37 31//38
f 32//27 38//39 94//14
f 79//40 47//1 81//41
f 10//42 21//43 91//44
f 38//39 32//27 27//25
f 27//25 16//24 20//16
f 19//45 30//46 74//47
f 34//48 89//49 10//42
f 9//50 44//30 39//32
f 32//27 2//22 26//26
f 41//5 3//4 9//50
f 5//6 30//46 19//45
f 48//51 12//52 93//53
f 42//29 4//28 102//54
f 93//53 14//55 48//51
f 94//14 18//13 2//22
f 37//8 17//7 80//56
f 21//43 68//17 91//44
f 42//29 9//50 7//23
f 39//32 30//46 41//5
f 27//25 31//38 38//39
f 2//22 7//23 24//34
f 45//36 99//19 13//21
f 97//57 12//52 80//56
f 104//58 23//59 15//60
f 20//16 98//18 27//25
f 30//46 5//6 41//5
f 7//23 9//50 3//4
f 98//18 31//38 27//25
f 31//38 36//37 38//39
f 12//52 97//57 93//53
f 18//13 42//29 7//23
f 40//15 43//61 4//28
f 94//14 38//39 72//62
f 18//13 40//15 4//28
f 85//63 47//1 87//3
f 12//52 48//51 50//64
f 102//54 44//30 42//29
f 22//65 45//36 44//30
f 95//66 76//11 13//21
f 1//67 57//68 88//69
f 23//59 79//40 99//19
f 61//70 60//71 54//72
f 29//31 30//46 39//32
f 34//48 61//70 28//73
f 35//74 89//49 97//57
f 97//57 34//48 28//73
f 75//35 30//46 29//31
f 38//39 36//37 72//62
f 9//50 39//32 41//5
f 42//29 44//30 9//50
f 94//14 2//22 32//27
f 35//74 21//43 89//49
f 36//37 46//75 72//62
f 43//61 102//54 4//28
f 103//76 15//60 46//75
f 79//40 104//58 50//64
f 99//19 81//41 49//20
f 85//63 13//21 49//20
f 47//1 85//63 81//41
f 47//1 14//55 100//2
f 14//55 11//77 25//78
f 51//79 87//3 25//78
f 85//63 87//3 13//21
f 87//3 95//66 13//21
f 6//10 96//80 76//11
f 70//81 6//10 67//82
f 65//83 73//84 59//85
f 74//47 75//35 70//81
f 17//7 21//43 35//74
f 84//86 101//87 83//88
f 51//79 95//66 87//3
f 43//61 15//60 23//59
f 64//89 62//90 78//91
f 78//91 84//86 55//92
f 90//93 34//48 10//42
f 92//94 60//71 90//93
f 82//95 86//96 59//85
f 101//87 78//91 62//90
f 78//91 101//87 84//86
f 59//85 77//12 52//97
f 62//90 88//69 101//87
f 64//89 61//70 54//72
f 62//90 53//98 58//99
f 62//90 1//67 88//69
f 63//100 83//88 101//87
f 80//56 17//7 35//74
f 53//98 62//90 64//89
f 67//82 69//101 70//81
f 84//86 83//88 51//79
f 21//43 33//9 98//18
f 79//40 81//41 99//19
f 52//97 95//66 63//100
f 64//89 54//72 53//98
f 61//70 90//93 60//71
f 83//88 63//100 95//66
f 1//67 62//90 58//99
f 11//77 55//92 84//86
f 52//97 76//11 95//66
f 69//101 66//102 70//81
f 71//103 65//83 59//85
f 73//84 67//82 59//85
f 74//47 30//46 75//35
f 15//60 43//61 46//75
f 11//77 56//104 55//92
f 6//10 77//12 67//82
f 11//77 84//86 25//78
f 76//11 52//97 77//12
f 59//85 67//82 77//12
f 55//92 61//70 64//89
f 56//104 61//70 55//92
f 102//54 99//19 22//65
f 78//91 55//92 64//89
f 50//64 48//51 47//1
f 80//56 12//52 103//76
f 45//36 75//35 29//31
f 81//41 85//63 49//20
f 44//30 45//36 29//31
f 48//51 14//55 47//1
f 88//69 57//68 86//96
f 82//95 101//87 88//69
f 22//65 99//19 45//36
f 103//76 37//8 80//56
f 84//86 51//79 25//78
f 100//2 14//55 25//78
f 33//9 31//38 98//18
f 33//9 21//43 17//7
f 6//10 45//36 96//80
f 88//69 86//96 82//95
f 59//85 63//100 82//95
f 63//100 59//85 52//97
f 89//49 34//48 97//57
f 87//3 100//2 25//78
f 37//8 103//76 36//37
f 35//74 97//57 80//56
f 90//93 10//42 92//94
f 10//42 89//49 21//43
f 72//62 46//75 43//61
f 86//96 71//103 59//85
f 28//73 11//77 14//55
f 99//19 102//54 23//59
f 79//40 50//64 47//1
f 103//76 46//75 36//37
f 15//60 12//52 50//64
f 97//57 28//73 93//53
f 93//53 28//73 14//55
f 102//54 22//65 44//30
f 56//104 28//73 61//70
f 95//66 51//79 83//88
f 91//44 92//94 10//42
f 90//93 61//70 34//48
f 6//10 70//81 75//35
f 23//59 104//58 79//40
f 33//9 37//8 36//37
f 40//15 72//62 43//61
f 96//80 13//21 76//11
f 40//15 94//14 72//62
f 101//87 82//95 63//100
f 21//43 98//18 68//17
f 102//54 43//61 23//59
f 11//77 28//73 56//104
f 104//58 15//60 50//64
f 45//36 13//21 96//80
f 12//52 15//60 103//76
