# Blender v2.79 (sub 0) OBJ File: ''
# www.blender.org
mtllib token Face.mtl
o Token_Icon_Torus.001
v 0.000000 0.050250 -0.000000
v 0.000000 0.050250 -0.838884
v 0.163658 0.050250 -0.822765
v 0.321027 0.050250 -0.775028
v 0.466059 0.050250 -0.697506
v 0.593180 0.050250 -0.593181
v 0.697506 0.050250 -0.466059
v 0.775028 0.050250 -0.321027
v 0.822765 0.050250 -0.163658
v 0.838884 0.050250 -0.000000
v 0.822765 0.050250 0.163658
v 0.775028 0.050250 0.321027
v 0.697506 0.050250 0.466059
v 0.593180 0.050250 0.593180
v 0.466059 0.050250 0.697506
v 0.321027 0.050250 0.775028
v 0.163658 0.050250 0.822765
v -0.000000 0.050250 0.838884
v -0.163658 0.050250 0.822765
v -0.321027 0.050250 0.775027
v -0.466059 0.050250 0.697506
v -0.593181 0.050250 0.593180
v -0.697507 0.050250 0.466058
v -0.775028 0.050250 0.321026
v -0.822765 0.050250 0.163657
v -0.838884 0.050250 -0.000001
v -0.822765 0.050250 -0.163659
v -0.775027 0.050250 -0.321028
v -0.697506 0.050250 -0.466060
v -0.593180 0.050250 -0.593181
v -0.466058 0.050250 -0.697507
v -0.321026 0.050250 -0.775028
v -0.163657 0.050250 -0.822765
v 0.000000 -0.050250 -0.000000
v 0.000000 -0.050250 -0.838884
v 0.163658 -0.050250 -0.822765
v 0.321027 -0.050250 -0.775028
v 0.466059 -0.050250 -0.697506
v 0.593180 -0.050250 -0.593181
v 0.697506 -0.050250 -0.466059
v 0.775028 -0.050250 -0.321027
v 0.822765 -0.050250 -0.163658
v 0.838884 -0.050250 -0.000000
v 0.822765 -0.050250 0.163658
v 0.775028 -0.050250 0.321027
v 0.697506 -0.050250 0.466059
v 0.593180 -0.050250 0.593180
v 0.466059 -0.050250 0.697506
v 0.321027 -0.050250 0.775028
v 0.163658 -0.050250 0.822765
v -0.000000 -0.050250 0.838884
v -0.163658 -0.050250 0.822765
v -0.321027 -0.050250 0.775027
v -0.466059 -0.050250 0.697506
v -0.593181 -0.050250 0.593180
v -0.697507 -0.050250 0.466058
v -0.775028 -0.050250 0.321026
v -0.822765 -0.050250 0.163657
v -0.838884 -0.050250 -0.000001
v -0.822765 -0.050250 -0.163659
v -0.775027 -0.050250 -0.321028
v -0.697506 -0.050250 -0.466060
v -0.593180 -0.050250 -0.593181
v -0.466058 -0.050250 -0.697507
v -0.321026 -0.050250 -0.775028
v -0.163657 -0.050250 -0.822765
vt 0.500000 0.500000
vt 0.263209 0.943006
vt 0.181333 0.888298
vt 0.354185 0.980689
vt 0.450765 0.999900
vt 0.549237 0.999900
vt 0.645816 0.980689
vt 0.736792 0.943005
vt 0.818668 0.888298
vt 0.888298 0.818668
vt 0.943006 0.736791
vt 0.980689 0.645815
vt 0.999900 0.549235
vt 0.999900 0.450764
vt 0.980689 0.354184
vt 0.943005 0.263208
vt 0.888297 0.181332
vt 0.818667 0.111702
vt 0.736791 0.056994
vt 0.645816 0.019311
vt 0.549236 0.000100
vt 0.450764 0.000100
vt 0.354185 0.019311
vt 0.263208 0.056994
vt 0.181332 0.111702
vt 0.111702 0.181332
vt 0.056994 0.263209
vt 0.019311 0.354185
vt 0.000100 0.450765
vt 0.000100 0.549237
vt 0.019311 0.645817
vt 0.056995 0.736793
vt 0.111703 0.818669
vt 0.500000 0.500000
vt 0.181333 0.888298
vt 0.263209 0.943006
vt 0.354185 0.980689
vt 0.450765 0.999900
vt 0.549237 0.999900
vt 0.645816 0.980689
vt 0.736792 0.943005
vt 0.818668 0.888298
vt 0.888298 0.818668
vt 0.943006 0.736791
vt 0.980689 0.645815
vt 0.999900 0.549235
vt 0.999900 0.450764
vt 0.980689 0.354184
vt 0.943005 0.263208
vt 0.888297 0.181332
vt 0.818667 0.111702
vt 0.736791 0.056994
vt 0.645816 0.019311
vt 0.549236 0.000100
vt 0.450764 0.000100
vt 0.354185 0.019311
vt 0.263208 0.056994
vt 0.181332 0.111702
vt 0.111702 0.181332
vt 0.056994 0.263209
vt 0.019311 0.354185
vt 0.000100 0.450765
vt 0.000100 0.549237
vt 0.019311 0.645817
vt 0.056995 0.736793
vt 0.111703 0.818669
vn 0.0000 1.0000 0.0000
vn 0.0000 -1.0000 0.0000
usemtl Face
s 1
f 1/1/1 3/2/1 2/3/1
f 1/1/1 4/4/1 3/2/1
f 1/1/1 5/5/1 4/4/1
f 1/1/1 6/6/1 5/5/1
f 1/1/1 7/7/1 6/6/1
f 1/1/1 8/8/1 7/7/1
f 1/1/1 9/9/1 8/8/1
f 1/1/1 10/10/1 9/9/1
f 1/1/1 11/11/1 10/10/1
f 1/1/1 12/12/1 11/11/1
f 1/1/1 13/13/1 12/12/1
f 1/1/1 14/14/1 13/13/1
f 1/1/1 15/15/1 14/14/1
f 1/1/1 16/16/1 15/15/1
f 1/1/1 17/17/1 16/16/1
f 1/1/1 18/18/1 17/17/1
f 1/1/1 19/19/1 18/18/1
f 1/1/1 20/20/1 19/19/1
f 1/1/1 21/21/1 20/20/1
f 1/1/1 22/22/1 21/21/1
f 1/1/1 23/23/1 22/22/1
f 1/1/1 24/24/1 23/23/1
f 1/1/1 25/25/1 24/24/1
f 1/1/1 26/26/1 25/25/1
f 1/1/1 27/27/1 26/26/1
f 1/1/1 28/28/1 27/27/1
f 1/1/1 29/29/1 28/28/1
f 1/1/1 30/30/1 29/29/1
f 1/1/1 31/31/1 30/30/1
f 1/1/1 32/32/1 31/31/1
f 1/1/1 33/33/1 32/32/1
f 1/1/1 2/3/1 33/33/1
f 34/34/2 35/35/2 36/36/2
f 34/34/2 36/36/2 37/37/2
f 34/34/2 37/37/2 38/38/2
f 34/34/2 38/38/2 39/39/2
f 34/34/2 39/39/2 40/40/2
f 34/34/2 40/40/2 41/41/2
f 34/34/2 41/41/2 42/42/2
f 34/34/2 42/42/2 43/43/2
f 34/34/2 43/43/2 44/44/2
f 34/34/2 44/44/2 45/45/2
f 34/34/2 45/45/2 46/46/2
f 34/34/2 46/46/2 47/47/2
f 34/34/2 47/47/2 48/48/2
f 34/34/2 48/48/2 49/49/2
f 34/34/2 49/49/2 50/50/2
f 34/34/2 50/50/2 51/51/2
f 34/34/2 51/51/2 52/52/2
f 34/34/2 52/52/2 53/53/2
f 34/34/2 53/53/2 54/54/2
f 34/34/2 54/54/2 55/55/2
f 34/34/2 55/55/2 56/56/2
f 34/34/2 56/56/2 57/57/2
f 34/34/2 57/57/2 58/58/2
f 34/34/2 58/58/2 59/59/2
f 34/34/2 59/59/2 60/60/2
f 34/34/2 60/60/2 61/61/2
f 34/34/2 61/61/2 62/62/2
f 34/34/2 62/62/2 63/63/2
f 34/34/2 63/63/2 64/64/2
f 34/34/2 64/64/2 65/65/2
f 34/34/2 65/65/2 66/66/2
f 34/34/2 66/66/2 35/35/2
